<?xml version="1.0" standalone="no"?>
<!DOCTYPE svg PUBLIC "-//W3C//DTD SVG 1.1//EN" "http://www.w3.org/Graphics/SVG/1.1/DTD/svg11.dtd" >
<svg xmlns="http://www.w3.org/2000/svg">
<metadata>Generated by IcoMoon</metadata>
<defs>
<font id="mbicon" horiz-adv-x="1024">
<font-face units-per-em="1024" ascent="1024" descent="0" />
<missing-glyph horiz-adv-x="1024" />
<glyph unicode="&#x20;" horiz-adv-x="0" d="" />
<glyph unicode="&#xe032;" glyph-name="pencil2" d="M0 16.672c0-8.832 7.168-16 16-16h995.552c2.144 0 4.224 0.416 6.176 1.248s3.712 2.016 5.184 3.488c0.032 0.032 0.064 0.032 0.096 0.064 0.096 0.096 0.096 0.288 0.224 0.384 1.632 1.76 2.688 3.904 3.424 6.24 0.224 0.736 0.32 1.44 0.448 2.208 0.128 0.8 0.48 1.504 0.48 2.336 0 1.28-0.448 2.4-0.736 3.584-0.096 0.448 0.096 0.896-0.064 1.344l-101.12 310.88c-0.768 2.4-2.112 4.608-3.904 6.368l-547.744 547.776c-0.576 0.896-0.992 1.856-1.76 2.656l-119.648 119.648c-19.424 19.424-51.040 19.424-70.496 0l-167.52-167.52c-9.408-9.408-14.592-21.92-14.592-35.232s5.184-25.856 14.592-35.264l116.992-116.992c0.576-0.864 0.96-1.856 1.728-2.624l546.88-550.56c1.888-1.92 4.192-3.296 6.784-4.064l214.816-64h-885.792c-8.832 0.032-16-7.136-16-15.968zM203.584 698.848l501.984-495.552-18.464-64.064-519.84 523.296 36.32 36.32zM730.112 224l-503.936 497.44 77.984 77.984 499.424-500.736v-74.688h-73.472zM823.52 324l-496.736 498.048 33.248 33.248 518.752-518.752-55.264-12.544zM735.616 192h83.968c8.832 0 16 7.168 16 16v85.92l64.224 14.592 87.136-267.84-271.616 80.928 20.288 70.4zM32 806.144c0 4.768 1.856 9.216 5.216 12.608l167.52 167.52c6.944 6.944 18.24 6.976 25.248 0l107.904-107.904-192.736-192.736-107.904 107.904c-3.392 3.36-5.248 7.84-5.248 12.608z" />
<glyph unicode="&#xe602;" glyph-name="home3" d="M25.592 409.6c-6.125 0-12.269 2.184-17.166 6.618-10.485 9.485-11.294 25.674-1.808 36.158l452.048 499.632c14.053 15.531 32.995 24.086 53.334 24.086 0 0 0 0 0 0 20.339 0 39.28-8.554 53.333-24.086l452.050-499.634c9.486-10.485 8.677-26.674-1.808-36.158-10.485-9.488-26.674-8.677-36.158 1.808l-452.050 499.635c-4.222 4.667-9.68 7.235-15.366 7.235s-11.146-2.57-15.368-7.237l-452.048-499.632c-5.053-5.587-12.010-8.426-18.992-8.426zM793.6 0h-204.8c-14.139 0-25.6 11.461-25.6 25.6v179.2h-102.4v-179.2c0-14.139-11.462-25.6-25.6-25.6h-204.8c-42.347 0-76.8 34.453-76.8 76.8v409.6c0 14.139 11.462 25.6 25.6 25.6s25.6-11.461 25.6-25.6v-409.6c0-14.115 11.485-25.6 25.6-25.6h179.2v179.2c0 14.139 11.462 25.6 25.6 25.6h153.6c14.139 0 25.6-11.461 25.6-25.6v-179.2h179.2c14.115 0 25.6 11.485 25.6 25.6v409.6c0 14.139 11.461 25.6 25.6 25.6s25.6-11.461 25.6-25.6v-409.6c0-42.347-34.453-76.8-76.8-76.8z" />
<glyph unicode="&#xe604;" glyph-name="home5" d="M25.592 409.6c-6.125 0-12.269 2.184-17.166 6.618-10.485 9.485-11.294 25.674-1.808 36.158l452.048 499.632c14.053 15.531 32.995 24.086 53.334 24.086 0 0 0 0 0 0 20.339 0 39.28-8.554 53.333-24.086l151.802-167.781-0.334 60.432c-0.037 6.814 2.643 13.362 7.448 18.194 4.805 4.83 11.338 7.547 18.152 7.547h102.4c14.139 0 25.6-11.462 25.6-25.6v-229.97l146.982-162.456c9.486-10.485 8.677-26.674-1.808-36.158-10.485-9.488-26.674-8.677-36.158 1.808l-153.6 169.766c-4.259 4.707-6.618 10.829-6.618 17.176v214.234h-51.058l0.563-101.691c0.058-10.613-6.437-20.162-16.331-24.005-9.894-3.84-21.133-1.182-28.251 6.688l-196.755 217.467c-4.222 4.667-9.68 7.235-15.366 7.235s-11.146-2.57-15.368-7.237l-452.048-499.632c-5.053-5.587-12.010-8.426-18.992-8.426zM793.6 0h-563.2c-42.347 0-76.8 34.453-76.8 76.8v409.6c0 14.139 11.462 25.6 25.6 25.6s25.6-11.461 25.6-25.6v-409.6c0-14.115 11.485-25.6 25.6-25.6h563.2c14.115 0 25.6 11.485 25.6 25.6v409.6c0 14.139 11.461 25.6 25.6 25.6s25.6-11.461 25.6-25.6v-409.6c0-42.347-34.453-76.8-76.8-76.8z" />
<glyph unicode="&#xe60d;" glyph-name="pencil" d="M978.101 978.102c-28.77 28.768-67.018 44.611-107.701 44.611-40.685 0-78.933-15.843-107.701-44.611l-652.8-652.8c-2.645-2.645-4.678-5.837-5.957-9.354l-102.4-281.6c-3.4-9.347-1.077-19.818 5.957-26.85 4.885-4.888 11.43-7.499 18.104-7.499 2.933 0 5.891 0.502 8.744 1.541l281.6 102.4c3.515 1.28 6.709 3.312 9.354 5.958l652.8 652.8c28.768 28.768 44.613 67.018 44.613 107.702s-15.843 78.933-44.613 107.701zM293.114 150.117l-224.709-81.71 81.712 224.707 566.683 566.683 142.997-142.997-566.683-566.683zM941.899 798.902l-45.899-45.899-142.997 142.997 45.899 45.899c19.098 19.098 44.49 29.614 71.498 29.614s52.4-10.518 71.499-29.616c19.098-19.098 29.616-44.49 29.616-71.498s-10.52-52.4-29.616-71.498z" />
<glyph unicode="&#xe613;" glyph-name="pencil5" d="M978.099 978.102c-28.768 28.768-67.016 44.611-107.699 44.611-40.685 0-78.933-15.843-107.699-44.611l-499.2-499.2c-2.645-2.645-4.678-5.837-5.957-9.357l-102.4-281.6c-3.4-9.347-1.077-19.818 5.957-26.848 4.885-4.89 11.43-7.501 18.104-7.501 2.933 0 5.891 0.501 8.744 1.541l281.6 102.4c3.515 1.28 6.709 3.312 9.354 5.96l499.2 499.2c28.766 28.768 44.614 67.018 44.614 107.702-0.003 40.686-15.846 78.934-44.618 107.702zM446.714 303.717l-224.709-81.71 81.712 224.706 413.083 413.085 142.997-142.997-413.083-413.083zM941.901 798.902l-45.901-45.899-142.997 142.997 45.901 45.899c19.096 19.098 44.488 29.614 71.496 29.614s52.4-10.518 71.501-29.616c19.096-19.098 29.614-44.49 29.614-71.498s-10.52-52.4-29.614-71.498zM896 0h-819.2c-42.347 0-76.8 34.451-76.8 76.8v819.2c0 42.347 34.453 76.8 76.8 76.8h512c14.139 0 25.6-11.462 25.6-25.6s-11.461-25.6-25.6-25.6h-512c-14.115 0-25.6-11.485-25.6-25.6v-819.2c0-14.115 11.485-25.6 25.6-25.6h819.2c14.115 0 25.6 11.485 25.6 25.6v512c0 14.138 11.461 25.6 25.6 25.6s25.6-11.462 25.6-25.6v-512c0-42.349-34.451-76.8-76.8-76.8z" />
<glyph unicode="&#xe672;" glyph-name="cog" d="M390.71 15.245c-2.109 0-4.248 0.262-6.378 0.81-45.976 11.803-90.149 30.042-131.291 54.21-11.923 7.003-16.13 22.21-9.501 34.344 8.15 14.925 12.459 31.866 12.459 48.992 0 56.464-45.936 102.4-102.4 102.4-17.125 0-34.066-4.309-48.992-12.459-12.133-6.627-27.339-2.421-34.342 9.501-24.17 41.142-42.408 85.315-54.211 131.293-3.333 12.989 3.92 26.349 16.629 30.629 41.699 14.037 69.717 53.034 69.717 97.037s-28.018 83-69.718 97.040c-12.707 4.278-19.962 17.638-16.627 30.627 11.803 45.976 30.042 90.149 54.211 131.291 7.003 11.923 22.21 16.13 34.344 9.501 14.923-8.15 31.864-12.459 48.99-12.459 56.464 0 102.4 45.936 102.4 102.4 0 17.126-4.309 34.067-12.459 48.99-6.629 12.134-2.422 27.341 9.501 34.344 41.141 24.168 85.314 42.408 131.291 54.211 12.994 3.334 26.349-3.92 30.627-16.627 14.040-41.701 53.037-69.718 97.040-69.718s83 28.018 97.038 69.717c4.28 12.71 17.645 19.965 30.629 16.629 45.976-11.802 90.15-30.042 131.293-54.211 11.922-7.003 16.128-22.208 9.501-34.342-8.152-14.926-12.461-31.867-12.461-48.992 0-56.464 45.936-102.4 102.4-102.4 17.126 0 34.067 4.309 48.992 12.459 12.138 6.629 27.341 2.421 34.344-9.501 24.166-41.141 42.406-85.314 54.21-131.291 3.334-12.989-3.918-26.349-16.627-30.627-41.701-14.040-69.718-53.037-69.718-97.040s28.018-83 69.718-97.038c12.707-4.28 19.962-17.638 16.627-30.629-11.803-45.976-30.042-90.15-54.21-131.291-7.005-11.925-22.208-16.128-34.344-9.502-14.926 8.152-31.867 12.461-48.992 12.461-56.464 0-102.4-45.936-102.4-102.4 0-17.125 4.309-34.066 12.461-48.992 6.627-12.136 2.421-27.341-9.502-34.344-41.141-24.166-85.314-42.406-131.291-54.21-12.992-3.336-26.349 3.918-30.629 16.627-14.038 41.701-53.035 69.718-97.038 69.718s-83-28.018-97.040-69.718c-3.578-10.624-13.502-17.437-24.25-17.437zM512 153.6c57.715 0 109.693-32.138 135.917-82.029 26.637 8.218 52.507 18.875 77.299 31.846-5.541 16.077-8.416 33.075-8.416 50.182 0 84.696 68.904 153.6 153.6 153.6 17.107 0 34.106-2.875 50.181-8.418 12.971 24.792 23.63 50.662 31.846 77.299-49.89 26.226-82.027 78.203-82.027 135.918s32.138 109.691 82.029 135.918c-8.218 26.637-18.875 52.506-31.846 77.299-16.077-5.542-33.074-8.418-50.182-8.418-84.696 0-153.6 68.904-153.6 153.6 0 17.107 2.875 34.106 8.418 50.181-24.792 12.971-50.662 23.63-77.299 31.846-26.226-49.89-78.203-82.027-135.918-82.027s-109.691 32.138-135.917 82.027c-26.637-8.216-52.507-18.874-77.299-31.846 5.542-16.075 8.416-33.072 8.416-50.181 0-84.696-68.904-153.6-153.6-153.6-17.109 0-34.106 2.874-50.181 8.418-12.973-24.794-23.63-50.662-31.846-77.299 49.89-26.227 82.027-78.203 82.027-135.918s-32.138-109.693-82.027-135.917c8.216-26.637 18.875-52.507 31.846-77.299 16.075 5.541 33.074 8.416 50.181 8.416 84.696 0 153.6-68.904 153.6-153.6 0-17.109-2.875-34.106-8.418-50.181 24.794-12.971 50.662-23.63 77.299-31.846 26.227 49.89 78.203 82.027 135.918 82.027zM512 358.4c-84.696 0-153.6 68.904-153.6 153.6s68.904 153.6 153.6 153.6 153.6-68.904 153.6-153.6-68.904-153.6-153.6-153.6zM512 614.4c-56.464 0-102.4-45.936-102.4-102.4s45.936-102.4 102.4-102.4c56.464 0 102.4 45.936 102.4 102.4s-45.936 102.4-102.4 102.4z" />
<glyph unicode="&#xe681;" glyph-name="trash2" d="M793.6 921.6h-179.2v25.6c0 42.347-34.453 76.8-76.8 76.8h-102.4c-42.347 0-76.8-34.453-76.8-76.8v-25.6h-179.2c-42.347 0-76.8-34.453-76.8-76.8v-51.2c0-33.373 21.403-61.829 51.2-72.397v-644.403c0-42.349 34.453-76.8 76.8-76.8h512c42.349 0 76.8 34.451 76.8 76.8v644.403c29.797 10.568 51.2 39.024 51.2 72.397v51.2c0 42.347-34.451 76.8-76.8 76.8zM409.6 947.2c0 14.115 11.485 25.6 25.6 25.6h102.4c14.115 0 25.6-11.485 25.6-25.6v-25.6h-153.6v25.6zM742.4 51.2h-512c-14.115 0-25.6 11.485-25.6 25.6v640h563.2v-640c0-14.115-11.485-25.6-25.6-25.6zM819.2 793.6c0-14.115-11.485-25.6-25.6-25.6h-614.4c-14.115 0-25.6 11.485-25.6 25.6v51.2c0 14.115 11.485 25.6 25.6 25.6h614.4c14.115 0 25.6-11.485 25.6-25.6v-51.2zM640 665.6c-14.139 0-25.6-11.462-25.6-25.6v-512c0-14.139 11.461-25.6 25.6-25.6s25.6 11.461 25.6 25.6v512c0 14.138-11.461 25.6-25.6 25.6zM486.4 665.6c-14.138 0-25.6-11.462-25.6-25.6v-512c0-14.139 11.462-25.6 25.6-25.6s25.6 11.461 25.6 25.6v512c0 14.138-11.462 25.6-25.6 25.6zM332.8 665.6c-14.138 0-25.6-11.462-25.6-25.6v-512c0-14.139 11.462-25.6 25.6-25.6s25.6 11.461 25.6 25.6v512c0 14.138-11.462 25.6-25.6 25.6z" />
<glyph unicode="&#xe68c;" glyph-name="heart" d="M486.4 51.2c-4.283 0-8.566 1.074-12.434 3.222-4.808 2.67-119.088 66.624-235.122 171.376-68.643 61.97-123.467 125.363-162.944 188.418-50.365 80.443-75.901 160.715-75.901 238.584 0 148.218 120.582 268.8 268.8 268.8 50.173 0 103.462-18.805 150.051-52.952 27.251-19.973 50.442-44.043 67.549-69.606 17.107 25.565 40.299 49.634 67.55 69.606 46.589 34.147 99.878 52.952 150.050 52.952 148.218 0 268.8-120.582 268.8-268.8 0-77.869-25.538-158.141-75.901-238.584-39.478-63.054-94.301-126.446-162.944-188.418-116.034-104.754-230.314-168.706-235.122-171.376-3.867-2.149-8.15-3.222-12.434-3.222zM268.8 870.4c-119.986 0-217.6-97.614-217.6-217.6 0-155.624 120.302-297.077 221.224-388.338 90.131-81.504 181.44-138.658 213.976-158.042 32.536 19.384 123.845 76.538 213.976 158.042 100.922 91.261 221.224 232.714 221.224 388.338 0 119.986-97.616 217.6-217.6 217.6-87.187 0-171.856-71.725-193.314-136.096-3.485-10.453-13.267-17.504-24.286-17.504s-20.802 7.051-24.286 17.504c-21.456 64.371-106.125 136.096-193.314 136.096z" />
<glyph unicode="&#xe68d;" glyph-name="star" d="M793.598 51.2c-4.205 0-8.422 1.034-12.258 3.126l-269.341 146.912-269.341-146.912c-8.598-4.691-19.118-4.061-27.098 1.613-7.981 5.677-12.022 15.41-10.413 25.069l49.034 294.206-195.483 195.485c-6.781 6.781-9.203 16.782-6.277 25.914s10.712 15.862 20.17 17.438l294.341 49.058 122.17 244.339c4.336 8.674 13.2 14.152 22.898 14.152s18.562-5.478 22.898-14.152l122.17-244.339 294.341-49.058c9.459-1.576 17.243-8.307 20.17-17.438s0.504-19.133-6.277-25.914l-195.483-195.485 49.034-294.206c1.61-9.659-2.434-19.392-10.413-25.069-4.419-3.144-9.621-4.739-14.84-4.739zM512 256c4.219 0 8.437-1.042 12.259-3.126l235.445-128.426-42.557 255.344c-1.36 8.155 1.302 16.464 7.15 22.309l169.626 169.626-258.131 43.022c-8.080 1.346-15.027 6.477-18.69 13.803l-105.102 210.205-105.102-210.205c-3.664-7.326-10.61-12.458-18.69-13.803l-258.131-43.022 169.624-169.626c5.846-5.845 8.509-14.155 7.15-22.309l-42.557-255.344 235.446 128.426c3.821 2.085 8.040 3.126 12.259 3.126z" />
<glyph unicode="&#xe68f;" glyph-name="star-empty" d="M281.57 597.33c-12.29 0-23.134 8.874-25.221 21.395-2.325 13.946 7.098 27.136 21.043 29.461l89.541 14.923 19.77 39.539c6.323 12.646 21.701 17.773 34.346 11.45 12.646-6.323 17.771-21.701 11.45-34.346l-25.6-51.2c-3.664-7.326-10.61-12.458-18.69-13.803l-102.4-17.067c-1.424-0.237-2.842-0.352-4.238-0.352zM128 512c-6.552 0-13.102 2.499-18.101 7.499l-51.2 51.2c-6.781 6.781-9.203 16.782-6.277 25.914s10.71 15.862 20.17 17.438l102.4 17.067c13.957 2.326 27.136-7.099 29.461-21.043 2.325-13.946-7.098-27.136-21.043-29.461l-53.331-8.89 16.024-16.026c9.998-9.997 9.998-26.206 0-36.203-5-4.997-11.55-7.496-18.102-7.496zM759.434 255.995c-12.29 0-23.134 8.875-25.221 21.397l-17.066 102.4c-1.36 8.155 1.302 16.464 7.15 22.309l51.2 51.2c9.997 9.997 26.206 9.997 36.203 0 9.998-9.997 9.998-26.206 0-36.203l-41.885-41.885 14.899-89.406c2.325-13.946-7.098-27.136-21.043-29.459-1.422-0.237-2.838-0.352-4.238-0.352zM793.598 51.2c-4.205 0-8.422 1.034-12.256 3.126l-153.606 83.784c-12.413 6.768-16.986 22.32-10.216 34.731 6.766 12.414 22.32 16.99 34.731 10.216l107.453-58.61-8.424 50.542c-2.325 13.947 7.098 27.136 21.042 29.461 13.955 2.322 27.136-7.096 29.461-21.042l17.067-102.4c1.61-9.661-2.434-19.394-10.413-25.070-4.418-3.144-9.619-4.739-14.838-4.739zM273.098 307.195c-1.398 0-2.814 0.115-4.238 0.354-13.946 2.325-23.366 15.514-21.043 29.461l6.368 38.205-41.885 41.885c-9.998 9.997-9.998 26.206 0 36.203s26.206 9.997 36.203 0l51.2-51.2c5.846-5.845 8.509-14.155 7.15-22.31l-8.533-51.2c-2.088-12.522-12.934-21.397-25.222-21.397zM230.402 51.2c-5.221 0-10.421 1.595-14.842 4.739-7.981 5.677-12.022 15.41-10.413 25.069l25.6 153.598c2.325 13.947 15.514 23.368 29.461 21.043 13.946-2.323 23.366-15.514 21.043-29.459l-16.957-101.742 56.246 30.68c12.41 6.771 27.963 2.197 34.733-10.214 6.77-12.413 2.197-27.963-10.216-34.733l-102.4-55.854c-3.834-2.093-8.051-3.126-12.256-3.126zM435.222 162.904c-9.067 0-17.85 4.827-22.498 13.347-6.77 12.411-2.197 27.963 10.216 34.731l76.8 41.891c7.64 4.168 16.875 4.168 24.517 0l25.595-13.962c12.413-6.768 16.986-22.32 10.216-34.731-6.766-12.414-22.32-16.99-34.731-10.216l-13.338 7.274-64.541-35.203c-3.893-2.123-8.094-3.131-12.237-3.131zM896 512c-6.552 0-13.102 2.499-18.101 7.499-9.998 9.997-9.998 26.206 0 36.203l16.024 16.026-104.53 17.422c-13.947 2.325-23.368 15.514-21.043 29.461s15.533 23.368 29.459 21.043l153.6-25.6c9.459-1.576 17.243-8.307 20.17-17.438s0.504-19.133-6.277-25.914l-51.2-51.2c-5-5.003-11.55-7.502-18.102-7.502zM691.234 605.862c-1.398 0-2.816 0.115-4.24 0.352l-51.202 8.533c-8.078 1.346-15.026 6.477-18.688 13.802l-51.2 102.395c-6.323 12.646-1.198 28.024 11.448 34.346 12.643 6.323 28.024 1.197 34.346-11.448l45.37-90.736 38.344-6.39c13.946-2.325 23.366-15.514 21.042-29.461-2.086-12.518-12.933-21.392-25.219-21.392zM460.779 767.995c-3.846 0-7.754 0.87-11.429 2.707-12.646 6.323-17.771 21.701-11.45 34.346l51.2 102.4c4.338 8.674 13.203 14.152 22.899 14.152 0 0 0 0 0 0 9.698 0 18.562-5.478 22.898-14.152l25.598-51.2c6.323-12.646 1.197-28.024-11.448-34.346-12.646-6.325-28.024-1.198-34.346 11.45l-2.702 5.403-28.301-56.603c-4.486-8.971-13.53-14.157-22.92-14.157z" />
<glyph unicode="&#xe691;" glyph-name="flag2" d="M76.8 0c-14.138 0-25.6 11.461-25.6 25.6v768c0 14.138 11.462 25.6 25.6 25.6s25.6-11.462 25.6-25.6v-768c0-14.139-11.462-25.6-25.6-25.6zM793.6 307.2c-113.005 0-171.389 58.386-222.901 109.899-50.925 50.923-94.902 94.901-186.699 94.901s-135.774-43.978-186.699-94.901c-9.997-9.998-26.206-9.998-36.203 0-9.998 9.997-9.998 26.206 0 36.203 51.514 51.512 109.899 109.898 222.902 109.898s171.389-58.386 222.901-109.899c50.925-50.923 94.904-94.901 186.699-94.901 87.264 0 131.315 39.744 179.2 87.416v288.139c-42.934-37.016-96.406-68.355-179.2-68.355-113.005 0-171.389 58.386-222.901 109.899-50.925 50.922-94.902 94.901-186.699 94.901s-135.774-43.979-186.699-94.901c-9.997-9.998-26.206-9.998-36.203 0s-9.998 26.206 0 36.203c51.514 51.512 109.899 109.898 222.902 109.898s171.389-58.386 222.901-109.899c50.925-50.922 94.904-94.901 186.699-94.901s135.774 43.979 186.699 94.901c7.32 7.322 18.33 9.514 27.899 5.55 9.565-3.962 15.802-13.296 15.802-23.651v-358.4c0-6.79-2.698-13.299-7.499-18.101-51.512-51.514-109.896-109.899-222.901-109.899zM76.8 870.4c-42.347 0-76.8 34.453-76.8 76.8s34.453 76.8 76.8 76.8 76.8-34.453 76.8-76.8-34.453-76.8-76.8-76.8zM76.8 972.8c-14.115 0-25.6-11.485-25.6-25.6s11.485-25.6 25.6-25.6 25.6 11.485 25.6 25.6-11.485 25.6-25.6 25.6z" />
<glyph unicode="&#xe695;" glyph-name="at-sign" d="M874.038 874.038c-96.704 96.704-225.278 149.962-362.038 149.962s-265.334-53.258-362.038-149.962c-96.704-96.704-149.962-225.278-149.962-362.038s53.258-265.334 149.962-362.038c96.704-96.704 225.278-149.962 362.038-149.962 80.33 0 157.243 18.085 228.606 53.752 68.026 33.998 128.746 83.774 175.598 143.95 8.688 11.157 6.685 27.24-4.47 35.926-11.157 8.686-27.238 6.686-35.926-4.47-88.058-113.096-220.661-177.958-363.808-177.958-254.086 0-460.8 206.714-460.8 460.8s206.714 460.8 460.8 460.8 460.8-206.714 460.8-460.8c0-90.437-52.635-153.6-128-153.6-70.579 0-128 57.421-128 128v204.8c0 14.138-11.461 25.6-25.6 25.6s-25.6-11.462-25.6-25.6v-43.898c-37.557 42.586-92.491 69.498-153.6 69.498-112.928 0-204.8-91.872-204.8-204.8 0-112.926 91.872-204.8 204.8-204.8 73.232 0 137.597 38.643 173.808 96.603 29.915-57.354 89.954-96.603 158.992-96.603 49.542 0 94.885 20.136 127.67 56.698 33.71 37.592 51.53 88.803 51.53 148.102 0 136.76-53.258 265.334-149.962 362.038zM512 358.4c-84.696 0-153.6 68.904-153.6 153.6s68.904 153.6 153.6 153.6 153.6-68.904 153.6-153.6-68.904-153.6-153.6-153.6z" />
<glyph unicode="&#xe696;" glyph-name="envelope" d="M896 716.8h-819.2c-42.347 0-76.8-34.453-76.8-76.8v-460.8c0-42.349 34.453-76.8 76.8-76.8h819.2c42.349 0 76.8 34.451 76.8 76.8v460.8c0 42.347-34.451 76.8-76.8 76.8zM896 665.6c1.514 0 2.99-0.158 4.434-0.411l-385.632-257.090c-14.862-9.907-41.938-9.907-56.802 0l-385.634 257.090c1.443 0.253 2.92 0.411 4.434 0.411h819.2zM896 153.6h-819.2c-14.115 0-25.6 11.485-25.6 25.6v438.566l378.4-252.267c15.925-10.618 36.363-15.925 56.8-15.925s40.877 5.307 56.802 15.925l378.398 252.267v-438.566c0-14.115-11.485-25.6-25.6-25.6z" />
<glyph unicode="&#xe697;" glyph-name="envelope-open" d="M916.861 739.742l-373.424 228.203c-15.584 9.525-35.842 14.77-57.037 14.77s-41.453-5.245-57.037-14.77l-373.424-228.203c-31.891-19.488-55.939-62.37-55.939-99.742v-460.8c0-42.349 34.453-76.8 76.8-76.8h819.2c42.349 0 76.8 34.451 76.8 76.8v460.8c0 37.373-24.048 80.253-55.939 99.742zM82.637 696.054l373.424 228.203c7.547 4.611 18.605 7.258 30.339 7.258s22.792-2.645 30.339-7.258l373.424-228.202c7.947-4.858 15.547-13.605 21.286-23.522l-396.648-264.435c-14.862-9.907-41.938-9.907-56.802 0l-396.648 264.434c5.739 9.917 13.338 18.666 21.285 23.522zM896 153.6h-819.2c-14.115 0-25.6 11.485-25.6 25.6v438.566l378.4-252.266c15.925-10.618 36.363-15.926 56.8-15.926s40.877 5.309 56.802 15.926l378.398 252.266v-438.566c0-14.115-11.485-25.6-25.6-25.6z" />
<glyph unicode="&#xe699;" glyph-name="paper-plane" d="M1015.456 966.291c-7.371 6.587-17.877 8.341-26.99 4.502l-972.8-409.6c-9.822-4.136-16.056-13.925-15.646-24.576 0.41-10.65 7.374-19.933 17.486-23.302l289.694-96.566v-288.749c0-10.835 6.822-20.499 17.034-24.125 2.805-0.995 5.698-1.477 8.562-1.477 7.562 0 14.917 3.358 19.874 9.458l141.472 174.12 230.27-227.392c4.851-4.79 11.339-7.384 17.989-7.384 2.133 0 4.283 0.267 6.402 0.814 8.72 2.253 15.616 8.922 18.157 17.563l256 870.4c2.792 9.483-0.13 19.726-7.502 26.314zM825.862 846.776l-497.882-382.986-229.79 76.597 727.672 306.389zM358.4 422.595l482.062 370.816-368.346-453.347c-0.011-0.013-0.022-0.027-0.034-0.040l-113.683-139.92v222.491zM729.922 125.101l-203.342 200.8 411.28 506.192-207.938-706.992z" />
<glyph unicode="&#xe6a5;" glyph-name="eye" d="M1017.429 503.526c-2.429 2.698-60.515 66.826-151.349 131.706-53.587 38.277-107.499 68.826-160.234 90.8-66.837 27.848-132.056 41.968-193.846 41.968s-127.010-14.12-193.846-41.97c-52.736-21.973-106.646-52.523-160.234-90.8-90.832-64.878-148.92-129.006-151.349-131.704-8.763-9.736-8.763-24.515 0-34.251 2.429-2.699 60.517-66.827 151.349-131.707 53.587-38.277 107.498-68.827 160.234-90.8 66.837-27.848 132.056-41.968 193.846-41.968s127.010 14.12 193.846 41.968c52.734 21.973 106.645 52.523 160.234 90.8 90.834 64.88 148.92 129.008 151.349 131.706 8.762 9.736 8.762 24.517 0 34.253zM643.789 694.357c46.458-39.074 73.011-95.923 73.011-156.757 0-112.926-91.874-204.8-204.8-204.8-112.928 0-204.8 91.874-204.8 204.8 0 60.835 26.554 117.685 73.014 156.757 42.107 13.744 86.602 22.443 131.786 22.443 45.186 0 89.682-8.699 131.789-22.443zM835.418 378.587c-78.488-55.925-198.309-122.587-323.418-122.587s-244.93 66.662-323.416 122.587c-59.24 42.21-104.574 84.89-127.458 107.813 22.888 22.928 68.222 65.606 127.458 107.813 27.13 19.331 59.2 39.942 94.72 58.643-17.766-35.224-27.304-74.52-27.304-115.256 0-141.16 114.842-256 256-256 141.16 0 256 114.84 256 256 0 40.734-9.538 80.032-27.301 115.256 35.517-18.701 67.589-39.312 94.718-58.643 59.238-42.21 104.573-84.89 127.456-107.813-22.888-22.928-68.222-65.606-127.456-107.813z" />
<glyph unicode="&#xe6a6;" glyph-name="eye-crossed" d="M1017.429 503.526c-2.429 2.698-60.515 66.826-151.349 131.706-30.728 21.949-61.562 41.341-92.218 58.048l88.301 81.509c10.389 9.59 11.037 25.786 1.446 36.174-9.59 10.39-25.786 11.035-36.174 1.446l-102.555-94.666c-6.36 2.883-12.704 5.65-19.034 8.286-66.837 27.85-132.056 41.97-193.846 41.97s-127.010-14.12-193.846-41.97c-52.736-21.973-106.646-52.523-160.234-90.8-90.832-64.878-148.92-129.006-151.349-131.704-8.763-9.736-8.763-24.515 0-34.251 2.429-2.699 60.517-66.827 151.349-131.707 30.728-21.949 61.56-41.342 92.218-58.048l-88.301-81.509c-10.389-9.59-11.037-25.786-1.446-36.174 5.046-5.467 11.922-8.235 18.818-8.235 6.208 0 12.435 2.245 17.358 6.789l102.555 94.667c6.36-2.883 12.706-5.65 19.034-8.288 66.835-27.85 132.054-41.97 193.845-41.97s127.010 14.12 193.846 41.968c52.734 21.973 106.645 52.523 160.234 90.8 90.834 64.88 148.92 129.008 151.349 131.706 8.762 9.736 8.762 24.517 0 34.253zM716.8 537.6c0-112.926-91.872-204.8-204.8-204.8-36.384 0-70.573 9.549-100.218 26.253l286.294 264.272c12.203-26.486 18.723-55.614 18.723-85.725zM643.787 694.357c9.774-8.221 18.662-17.234 26.613-26.901l-300.397-277.29c-38.691 37.277-62.803 89.59-62.803 147.434 0 60.835 26.552 117.683 73.013 156.757 42.109 13.744 86.602 22.443 131.787 22.443s89.68-8.699 131.787-22.443zM188.584 378.587c-59.24 42.21-104.574 84.89-127.458 107.813 22.888 22.928 68.222 65.606 127.458 107.813 27.13 19.331 59.2 39.942 94.72 58.643-17.766-35.222-27.304-74.52-27.304-115.256 0-71.224 29.248-135.738 76.35-182.19l-42.248-38.997c-38.229 19.614-72.669 41.619-101.518 62.174zM835.418 378.587c-78.488-55.925-198.309-122.587-323.418-122.587-59.717 0-118.224 15.194-171.61 37.152l32.275 29.792c40.125-26.134 87.984-41.344 139.334-41.344 141.158 0 256 114.84 256 256 0 40.734-9.538 80.032-27.301 115.256 35.518-18.701 67.589-39.312 94.718-58.643 59.238-42.21 104.573-84.89 127.456-107.813-22.888-22.928-68.222-65.606-127.456-107.813z" />
<glyph unicode="&#xe6b1;" glyph-name="printer" d="M947.2 819.2h-76.8v128c0 42.347-34.453 76.8-76.8 76.8h-563.2c-42.347 0-76.8-34.453-76.8-76.8v-128h-76.8c-42.347 0-76.8-34.453-76.8-76.8v-460.8c0-42.349 34.453-76.8 76.8-76.8h76.8v-128c0-42.347 34.453-76.8 76.8-76.8h563.2c42.347 0 76.8 34.453 76.8 76.8v128h76.8c42.349 0 76.8 34.451 76.8 76.8v460.8c0 42.347-34.451 76.8-76.8 76.8zM204.8 947.2c0 14.115 11.485 25.6 25.6 25.6h563.2c14.115 0 25.6-11.485 25.6-25.6v-128h-614.4v128zM793.6 51.2h-563.2c-14.115 0-25.6 11.485-25.6 25.6v332.8h614.4v-332.8c0-14.115-11.485-25.6-25.6-25.6zM972.8 281.6c0-14.115-11.485-25.6-25.6-25.6h-76.8v153.6h25.6c14.139 0 25.6 11.461 25.6 25.6s-11.461 25.6-25.6 25.6h-768c-14.138 0-25.6-11.461-25.6-25.6s11.462-25.6 25.6-25.6h25.6v-153.6h-76.8c-14.115 0-25.6 11.485-25.6 25.6v460.8c0 14.115 11.485 25.6 25.6 25.6h870.4c14.115 0 25.6-11.485 25.6-25.6v-460.8zM742.4 307.2h-460.8c-14.138 0-25.6 11.461-25.6 25.6s11.462 25.6 25.6 25.6h460.8c14.139 0 25.6-11.461 25.6-25.6s-11.461-25.6-25.6-25.6zM742.4 204.8h-460.8c-14.138 0-25.6 11.461-25.6 25.6s11.462 25.6 25.6 25.6h460.8c14.139 0 25.6-11.461 25.6-25.6s-11.461-25.6-25.6-25.6zM742.4 102.4h-460.8c-14.138 0-25.6 11.461-25.6 25.6s11.462 25.6 25.6 25.6h460.8c14.139 0 25.6-11.461 25.6-25.6s-11.461-25.6-25.6-25.6zM844.8 563.2c-42.349 0-76.8 34.453-76.8 76.8s34.451 76.8 76.8 76.8 76.8-34.453 76.8-76.8-34.451-76.8-76.8-76.8zM844.8 665.6c-14.115 0-25.6-11.485-25.6-25.6s11.485-25.6 25.6-25.6 25.6 11.485 25.6 25.6-11.485 25.6-25.6 25.6z" />
<glyph unicode="&#xe6f6;" glyph-name="presentation" d="M947.2 1024h-921.6c-14.138 0-25.6-11.462-25.6-25.6v-768c0-14.139 11.462-25.6 25.6-25.6h398.997l-161.099-161.099c-9.997-9.997-9.997-26.206 0-36.203 5-4.998 11.55-7.498 18.102-7.498s13.102 2.499 18.102 7.499l161.098 161.096v-142.995c0-14.139 11.462-25.6 25.6-25.6s25.6 11.461 25.6 25.6v142.997l161.099-161.099c4.998-4.998 11.549-7.498 18.101-7.498s13.102 2.499 18.101 7.499c9.998 9.997 9.998 26.206 0 36.203l-161.098 161.098h398.997c14.139 0 25.6 11.461 25.6 25.6v768c0 14.138-11.461 25.6-25.6 25.6zM51.2 972.8h870.4v-614.4h-870.4v614.4zM921.6 256h-870.4v51.2h870.4v-51.2zM654.682 686.573l-256 179.2c-7.822 5.475-18.037 6.142-26.502 1.734s-13.779-13.162-13.779-22.707v-358.4c0-9.546 5.31-18.299 13.778-22.706 3.72-1.938 7.778-2.894 11.821-2.894 5.16 0 10.299 1.558 14.683 4.629l256 179.2c6.842 4.789 10.918 12.618 10.918 20.971s-4.077 16.182-10.918 20.973zM409.6 535.568v260.064l185.76-130.032-185.76-130.032z" />
<glyph unicode="&#xe6f8;" glyph-name="film-play" d="M383.997 256c-3.902 0-7.822 0.891-11.445 2.702-8.674 4.336-14.152 13.2-14.152 22.898v460.8c0 9.698 5.478 18.562 14.152 22.898 8.67 4.334 19.051 3.4 26.808-2.418l307.2-230.4c6.446-4.834 10.24-12.422 10.24-20.48s-3.794-15.645-10.24-20.48l-307.2-230.4c-4.517-3.387-9.923-5.12-15.363-5.12zM409.6 691.2v-358.4l238.933 179.2-238.933 179.2zM998.4 921.6h-972.8c-14.138 0-25.6-11.462-25.6-25.6v-768c0-14.139 11.462-25.6 25.6-25.6h972.8c14.139 0 25.6 11.461 25.6 25.6v768c0 14.138-11.461 25.6-25.6 25.6zM153.6 460.8h-102.4v102.4h102.4v-102.4zM153.6 614.4h-102.4v102.4h102.4v-102.4zM51.2 409.6h102.4v-102.4h-102.4v102.4zM204.8 870.4h614.4v-716.8h-614.4v716.8zM870.4 563.2h102.4v-102.4h-102.4v102.4zM870.4 614.4v102.4h102.4v-102.4h-102.4zM870.4 409.6h102.4v-102.4h-102.4v102.4zM972.8 768h-102.4v102.4h102.4v-102.4zM153.6 870.4v-102.4h-102.4v102.4h102.4zM51.2 256h102.4v-102.4h-102.4v102.4zM870.4 153.6v102.4h102.4v-102.4h-102.4z" />
<glyph unicode="&#xe6f9;" glyph-name="clapboard-play" d="M896 921.6h-51.285c-0.029 0-0.058 0-0.086 0h-204.714c-0.030 0-0.058 0-0.088 0h-204.714c-0.029 0-0.058 0-0.086 0h-204.714c-0.029 0-0.058 0-0.086 0h-153.427c-42.347 0-76.8-34.453-76.8-76.8v-665.6c0-42.349 34.453-76.8 76.8-76.8h819.2c42.349 0 76.8 34.451 76.8 76.8v665.6c0 42.347-34.451 76.8-76.8 76.8zM921.6 844.8v-76.8h-131.366l68.267 102.4h37.499c14.115 0 25.6-11.485 25.6-25.6zM585.434 768l68.267 102.4h143.267l-68.267-102.4h-143.267zM380.634 768l68.267 102.4h143.267l-68.267-102.4h-143.267zM175.834 768l68.267 102.4h143.266l-68.267-102.4h-143.266zM76.8 870.4h105.766l-68.267-102.4h-63.099v76.8c0 14.115 11.485 25.6 25.6 25.6zM896 153.6h-819.2c-14.115 0-25.6 11.485-25.6 25.6v537.6h76.71c0.022 0 0.043-0.002 0.066-0.002 0.026 0 0.051 0.002 0.077 0.002h204.658c0.022 0 0.043-0.002 0.066-0.002 0.026 0 0.051 0.002 0.077 0.002h204.658c0.022 0 0.043-0.002 0.066-0.002 0.027 0 0.051 0.002 0.078 0.002h204.656c0.022 0 0.043-0.002 0.066-0.002 0.027 0 0.051 0.002 0.078 0.002h179.146v-537.6c0-14.115-11.485-25.6-25.6-25.6zM384 256c-4.347 0-8.696 1.106-12.613 3.323-8.026 4.544-12.987 13.053-12.987 22.277v307.2c0 9.224 4.962 17.733 12.987 22.277 8.027 4.544 17.877 4.422 25.784-0.325l256-153.6c7.709-4.627 12.429-12.96 12.429-21.952s-4.718-17.325-12.429-21.952l-256-153.6c-4.050-2.429-8.61-3.648-13.171-3.648zM409.6 543.586v-216.771l180.642 108.386-180.642 108.386z" />
<glyph unicode="&#xe704;" glyph-name="camera2" d="M486.4 256c-127.043 0-230.4 103.357-230.4 230.4s103.357 230.4 230.4 230.4c127.043 0 230.4-103.357 230.4-230.4s-103.357-230.4-230.4-230.4zM486.4 665.6c-98.811 0-179.2-80.389-179.2-179.2s80.389-179.2 179.2-179.2 179.2 80.389 179.2 179.2-80.389 179.2-179.2 179.2zM896 102.4h-819.2c-42.347 0-76.8 34.451-76.8 76.8v512c0 42.347 34.453 76.8 76.8 76.8h76.8c21.246 0 54.278 13.682 69.302 28.706l29.992 29.992c24.914 24.915 70.272 43.702 105.506 43.702h256c35.235 0 80.594-18.789 105.506-43.702l29.992-29.99c15.024-15.026 48.056-28.707 69.302-28.707h76.8c42.349 0 76.8-34.453 76.8-76.8v-512c0-42.349-34.451-76.8-76.8-76.8zM76.8 716.8c-14.115 0-25.6-11.485-25.6-25.6v-512c0-14.115 11.485-25.6 25.6-25.6h819.2c14.115 0 25.6 11.485 25.6 25.6v512c0 14.115-11.485 25.6-25.6 25.6h-76.8c-35.235 0-80.594 18.789-105.506 43.702l-29.992 29.99c-15.024 15.026-48.056 28.707-69.302 28.707h-256c-21.246 0-54.278-13.682-69.302-28.706l-29.992-29.992c-24.914-24.915-70.272-43.702-105.506-43.702h-76.8z" />
<glyph unicode="&#xe70e;" glyph-name="picture" d="M691.2 563.2c-70.579 0-128 57.421-128 128s57.421 128 128 128 128-57.421 128-128-57.421-128-128-128zM691.2 768c-42.347 0-76.8-34.453-76.8-76.8s34.453-76.8 76.8-76.8 76.8 34.453 76.8 76.8-34.453 76.8-76.8 76.8zM947.2 1024h-870.4c-42.347 0-76.8-34.453-76.8-76.8v-870.4c0-42.349 34.453-76.8 76.8-76.8h870.4c42.349 0 76.8 34.451 76.8 76.8v870.4c0 42.347-34.451 76.8-76.8 76.8zM51.2 76.8v246.102l214.902 236.392c4.333 4.766 10.051 7.434 16.101 7.51 6.022 0.029 11.835-2.443 16.288-7.099l486.397-508.506h-708.088c-14.115 0-25.6 11.485-25.6 25.6zM972.8 76.8c0-14.115-11.485-25.6-25.6-25.6h-91.461l-520.25 543.896c-14.376 15.029-33.534 23.146-53.936 22.904-20.405-0.259-39.347-8.877-53.336-24.266l-177.018-194.717v548.182c0 14.115 11.485 25.6 25.6 25.6h870.4c14.115 0 25.6-11.485 25.6-25.6v-870.4z" />
<glyph unicode="&#xe710;" glyph-name="picture3" d="M947.2 0h-870.4c-42.347 0-76.8 34.451-76.8 76.8v870.4c0 42.347 34.453 76.8 76.8 76.8h870.4c42.349 0 76.8-34.453 76.8-76.8v-870.4c0-42.349-34.451-76.8-76.8-76.8zM76.8 972.8c-14.115 0-25.6-11.485-25.6-25.6v-870.4c0-14.115 11.485-25.6 25.6-25.6h870.4c14.115 0 25.6 11.485 25.6 25.6v870.4c0 14.115-11.485 25.6-25.6 25.6h-870.4zM665.6 563.2c-56.464 0-102.4 45.936-102.4 102.4s45.936 102.4 102.4 102.4 102.4-45.936 102.4-102.4-45.936-102.4-102.4-102.4zM665.6 716.8c-28.232 0-51.2-22.968-51.2-51.2s22.968-51.2 51.2-51.2 51.2 22.968 51.2 51.2-22.968 51.2-51.2 51.2zM896 102.4h-358.4c-14.139 0-25.6 11.461-25.6 25.6s11.461 25.6 25.6 25.6h358.4c14.139 0 25.6-11.461 25.6-25.6s-11.461-25.6-25.6-25.6zM896 921.6h-768c-14.138 0-25.6-11.462-25.6-25.6v-614.4c0-14.139 11.462-25.6 25.6-25.6h768c14.139 0 25.6 11.461 25.6 25.6v614.4c0 14.138-11.461 25.6-25.6 25.6zM153.6 425.467l164.318 184.858c4.203 4.728 9.694 7.371 15.462 7.44 5.725 0.090 11.322-2.438 15.638-7.062l283.27-303.502h-478.69v118.267zM870.4 307.2h-168.075l-315.875 338.437c-14.269 15.288-33.312 23.605-53.691 23.325-20.354-0.246-39.214-8.992-53.107-24.621l-126.051-141.808v367.867h716.8v-563.2z" />
<glyph unicode="&#xe716;" glyph-name="bookmark2" d="M793.605-0.002c-7.331 0-14.482 3.155-19.442 8.941l-287.763 335.723-287.763-335.723c-6.971-8.131-18.269-11.067-28.318-7.349-10.048 3.715-16.718 13.298-16.718 24.010v921.6c0 14.138 11.462 25.6 25.6 25.6h614.4c14.139 0 25.6-11.462 25.6-25.6v-921.6c0-10.712-6.67-20.294-16.718-24.010-2.899-1.074-5.904-1.592-8.877-1.592zM486.4 409.6c7.474 0 14.573-3.266 19.437-8.939l262.163-305.858v826.797h-563.2v-826.797l262.163 305.858c4.864 5.674 11.963 8.939 19.437 8.939z" />
<glyph unicode="&#xe717;" glyph-name="label" d="M640 153.6h-563.2c-42.347 0-76.8 34.451-76.8 76.8v512c0 42.347 34.453 76.8 76.8 76.8h563.2c36.024 0 80.581-20.869 103.643-48.544l190.445-228.534c26.038-31.245 26.038-80.198-0.002-111.443l-190.442-228.534c-23.064-27.675-67.621-48.544-103.645-48.544zM76.8 768c-14.115 0-25.6-11.485-25.6-25.6v-512c0-14.115 11.485-25.6 25.6-25.6h563.2c20.52 0 51.173 14.358 64.312 30.122l190.443 228.534c10.187 12.222 10.187 33.666 0.002 45.888l-190.446 228.534c-13.138 15.765-43.79 30.122-64.31 30.122h-563.2z" />
<glyph unicode="&#xe71b;" glyph-name="profile" d="M947.2 153.6h-870.4c-42.347 0-76.8 34.451-76.8 76.8v563.2c0 42.347 34.453 76.8 76.8 76.8h870.4c42.349 0 76.8-34.453 76.8-76.8v-563.2c0-42.349-34.451-76.8-76.8-76.8zM76.8 819.2c-14.115 0-25.6-11.485-25.6-25.6v-563.2c0-14.115 11.485-25.6 25.6-25.6h870.4c14.115 0 25.6 11.485 25.6 25.6v563.2c0 14.115-11.485 25.6-25.6 25.6h-870.4zM435.232 307.2c-0.011 0.002-0.022 0.002-0.032 0h-256c-14.138 0-25.6 11.461-25.6 25.6 0 3.371 0.558 33.834 19.891 64.768 18.029 28.846 55.861 63.232 133.709 63.232s115.68-34.386 133.709-63.232c17.301-27.683 19.566-54.989 19.851-62.838 0.048-0.637 0.072-1.282 0.072-1.93 0-14.139-11.462-25.6-25.6-25.6zM210.786 358.4h192.83c-1.797 4.419-4.133 9.067-7.166 13.654-16.483 24.914-46.509 37.546-89.25 37.546s-72.766-12.632-89.248-37.546c-3.035-4.587-5.37-9.235-7.166-13.654zM844.8 614.4h-256c-14.139 0-25.6 11.461-25.6 25.6s11.461 25.6 25.6 25.6h256c14.139 0 25.6-11.461 25.6-25.6s-11.461-25.6-25.6-25.6zM793.6 512h-204.8c-14.139 0-25.6 11.461-25.6 25.6s11.461 25.6 25.6 25.6h204.8c14.139 0 25.6-11.461 25.6-25.6s-11.461-25.6-25.6-25.6zM793.6 409.6h-204.8c-14.139 0-25.6 11.461-25.6 25.6s11.461 25.6 25.6 25.6h204.8c14.139 0 25.6-11.461 25.6-25.6s-11.461-25.6-25.6-25.6zM307.2 512c-56.464 0-102.4 45.936-102.4 102.4s45.936 102.4 102.4 102.4 102.4-45.936 102.4-102.4c0-56.464-45.936-102.4-102.4-102.4zM307.2 665.6c-28.232 0-51.2-22.968-51.2-51.2s22.968-51.2 51.2-51.2 51.2 22.968 51.2 51.2-22.968 51.2-51.2 51.2zM844.8 307.2h-256c-14.139 0-25.6 11.461-25.6 25.6s11.461 25.6 25.6 25.6h256c14.139 0 25.6-11.461 25.6-25.6s-11.461-25.6-25.6-25.6z" />
<glyph unicode="&#xe71e;" glyph-name="user" d="M486.4 460.8c-155.275 0-281.6 126.325-281.6 281.6s126.325 281.6 281.6 281.6 281.6-126.325 281.6-281.6-126.325-281.6-281.6-281.6zM486.4 972.8c-127.043 0-230.4-103.357-230.4-230.4s103.357-230.4 230.4-230.4c127.042 0 230.4 103.357 230.4 230.4s-103.358 230.4-230.4 230.4zM896 0h-819.2c-42.347 0-76.8 34.451-76.8 76.8 0 3.485 0.712 86.285 62.72 168.96 36.094 48.126 85.514 86.36 146.883 113.634 74.957 33.314 168.085 50.206 276.797 50.206 108.71 0 201.838-16.893 276.797-50.206 61.37-27.275 110.789-65.507 146.883-113.634 62.008-82.675 62.72-165.475 62.72-168.96 0-42.349-34.451-76.8-76.8-76.8zM486.4 358.4c-178.52 0-310.267-48.789-381-141.093-53.011-69.174-54.195-139.904-54.2-140.61 0-14.013 11.485-25.498 25.6-25.498h819.2c14.115 0 25.6 11.485 25.6 25.6-0.006 0.603-1.189 71.333-54.198 140.507-70.734 92.304-202.483 141.093-381.002 141.093z" />
<glyph unicode="&#xe744;" glyph-name="store" d="M921.6 537.6v51.2c0 3.974-0.925 7.894-2.702 11.448l-102.4 204.8c-4.336 8.674-13.2 14.152-22.898 14.152h-614.4c-9.698 0-18.562-5.478-22.898-14.152l-102.4-204.8c-1.778-3.554-2.702-7.474-2.702-11.448v-51.2c0-41.786 20.131-78.955 51.2-102.33v-332.87h-25.6c-14.138 0-25.6-11.461-25.6-25.6s11.462-25.6 25.6-25.6h819.2c14.139 0 25.6 11.461 25.6 25.6s-11.461 25.6-25.6 25.6h-25.598v332.87c31.067 23.376 51.198 60.544 51.198 102.33zM588.8 460.8c-42.347 0-76.8 34.453-76.8 76.8v25.6h153.6v-25.6c0-42.347-34.453-76.8-76.8-76.8zM102.4 537.6v25.6h153.6v-25.6c0-42.347-34.453-76.8-76.8-76.8s-76.8 34.453-76.8 76.8zM460.8 768v-153.6h-146.413l38.4 153.6h108.013zM620.013 768l38.4-153.6h-146.413v153.6h108.013zM307.2 563.2h153.6v-25.6c0-42.347-34.453-76.8-76.8-76.8s-76.8 34.453-76.8 76.8v25.6zM716.8 563.2h153.6v-25.6c0-42.347-34.453-76.8-76.8-76.8s-76.8 34.453-76.8 76.8v25.6zM854.578 614.4h-143.39l-38.4 153.6h104.99l76.8-153.6zM195.022 768h104.99l-38.4-153.6h-143.39l76.8 153.6zM153.6 412.174c8.274-1.686 16.835-2.574 25.6-2.574 41.827 0 79.029 20.168 102.4 51.29 23.371-31.122 60.573-51.29 102.4-51.29s79.029 20.168 102.4 51.29c18.474-24.598 45.589-42.354 76.8-48.714v-309.776h-409.6v309.774zM819.202 102.4h-204.802v309.774c31.211 6.362 58.325 24.115 76.8 48.714 23.371-31.12 60.573-51.288 102.4-51.288 8.766 0 17.326 0.89 25.602 2.576v-309.776zM716.8 281.6c0-14.138-11.462-25.6-25.6-25.6s-25.6 11.462-25.6 25.6c0 14.138 11.462 25.6 25.6 25.6s25.6-11.462 25.6-25.6zM230.4 256c-6.552 0-13.102 2.499-18.102 7.499-9.997 9.997-9.997 26.206 0 36.203l51.2 51.2c9.998 9.997 26.206 9.997 36.205 0 9.997-9.997 9.997-26.206 0-36.203l-51.2-51.2c-5-5-11.55-7.499-18.102-7.499zM281.6 153.6c-6.552 0-13.102 2.499-18.101 7.499-9.998 9.997-9.998 26.206 0 36.203l153.6 153.6c9.997 9.997 26.206 9.997 36.203 0 9.998-9.997 9.998-26.206 0-36.203l-153.6-153.6c-5-5-11.55-7.499-18.102-7.499zM435.2 153.6c-6.552 0-13.102 2.499-18.102 7.499-9.997 9.997-9.997 26.206 0 36.203l51.2 51.2c9.998 9.997 26.206 9.997 36.205 0s9.998-26.206 0-36.203l-51.2-51.2c-5-5-11.55-7.499-18.102-7.499z" />
<glyph unicode="&#xe746;" glyph-name="store-24" d="M921.6 537.6v51.2c0 3.974-0.925 7.894-2.702 11.448l-102.4 204.8c-4.336 8.674-13.2 14.152-22.898 14.152h-307.2c-14.138 0-25.6-11.462-25.6-25.6v-179.2h-146.411l17.648 70.592c3.429 13.717-4.91 27.614-18.627 31.045-13.714 3.427-27.614-4.91-31.045-18.627l-20.752-83.010h-143.39l32.675 65.352c6.323 12.645 1.197 28.022-11.45 34.346-12.645 6.323-28.024 1.197-34.346-11.45l-51.2-102.4c-1.778-3.554-2.702-7.474-2.702-11.448v-51.2c0-41.786 20.131-78.955 51.2-102.33v-332.87h-25.6c-14.138 0-25.6-11.461-25.6-25.6s11.462-25.6 25.6-25.6h819.2c14.139 0 25.6 11.461 25.6 25.6s-11.461 25.6-25.6 25.6h-25.598v332.87c31.067 23.376 51.198 60.544 51.198 102.33zM588.8 460.8c-42.347 0-76.8 34.453-76.8 76.8v25.6h153.6v-25.6c0-42.347-34.453-76.8-76.8-76.8zM716.8 563.2h153.6v-25.6c0-42.347-34.453-76.8-76.8-76.8s-76.8 34.453-76.8 76.8v25.6zM854.578 614.4h-143.39l-38.4 153.6h104.99l76.8-153.6zM512 768h108.013l38.4-153.6h-146.413v153.6zM460.8 537.6c0-42.347-34.453-76.8-76.8-76.8s-76.8 34.453-76.8 76.8v25.6h153.6v-25.6zM102.4 537.6v25.6h153.6v-25.6c0-42.347-34.453-76.8-76.8-76.8s-76.8 34.453-76.8 76.8zM153.6 412.174c8.274-1.686 16.835-2.574 25.6-2.574 41.827 0 79.029 20.168 102.4 51.29 23.371-31.122 60.573-51.29 102.4-51.29s79.029 20.168 102.4 51.29c18.474-24.598 45.589-42.354 76.8-48.714v-309.776h-409.6v309.774zM819.202 102.4h-204.802v309.774c31.211 6.362 58.325 24.115 76.8 48.714 23.371-31.12 60.573-51.288 102.4-51.288 8.766 0 17.326 0.89 25.602 2.576v-309.776zM716.8 281.6c0-14.138-11.462-25.6-25.6-25.6s-25.6 11.462-25.6 25.6c0 14.138 11.462 25.6 25.6 25.6s25.6-11.462 25.6-25.6zM230.4 256c-6.552 0-13.102 2.499-18.102 7.499-9.997 9.997-9.997 26.206 0 36.203l51.2 51.2c9.998 9.997 26.206 9.997 36.205 0 9.997-9.997 9.997-26.206 0-36.203l-51.2-51.2c-5-5-11.55-7.499-18.102-7.499zM281.6 153.6c-6.552 0-13.102 2.499-18.101 7.499-9.998 9.997-9.998 26.206 0 36.203l153.6 153.6c9.997 9.997 26.206 9.997 36.203 0 9.998-9.997 9.998-26.206 0-36.203l-153.6-153.6c-5-5-11.55-7.499-18.102-7.499zM435.2 153.6c-6.552 0-13.102 2.499-18.102 7.499-9.997 9.997-9.997 26.206 0 36.203l51.2 51.2c9.998 9.997 26.206 9.997 36.205 0s9.998-26.206 0-36.203l-51.2-51.2c-5-5-11.55-7.499-18.102-7.499zM179.2 768h-102.4c-14.138 0-25.6 11.462-25.6 25.6v102.4c0 14.138 11.462 25.6 25.6 25.6h76.8v51.2h-76.8c-14.138 0-25.6 11.462-25.6 25.6s11.462 25.6 25.6 25.6h102.4c14.138 0 25.6-11.462 25.6-25.6v-102.4c0-14.138-11.462-25.6-25.6-25.6h-76.8v-51.2h76.8c14.138 0 25.6-11.462 25.6-25.6s-11.462-25.6-25.6-25.6zM384 1024c-14.138 0-25.6-11.462-25.6-25.6v-76.8h-51.2v76.8c0 14.138-11.462 25.6-25.6 25.6s-25.6-11.462-25.6-25.6v-102.4c0-14.138 11.462-25.6 25.6-25.6h76.8v-76.8c0-14.138 11.462-25.6 25.6-25.6s25.6 11.462 25.6 25.6v204.8c0 14.138-11.462 25.6-25.6 25.6z" />
<glyph unicode="&#xe74c;" glyph-name="bag2" d="M1023.84 28.75l-51.106 715.474c-0.957 13.397-12.102 23.776-25.534 23.776h-117.397l-197.302 197.301c-9.997 9.998-26.206 9.998-36.203 0l-25.6-25.6c-9.998-9.997-9.998-26.206 0-36.203 9.997-9.998 26.206-9.998 36.203 0l7.499 7.499 142.997-142.997h-81.194l-222.902 222.901c-9.997 9.998-26.206 9.998-36.203 0l-222.901-222.901h-117.397c-13.43 0-24.578-10.379-25.534-23.776l-51.2-716.8c-0.506-7.088 1.957-14.067 6.8-19.269 4.842-5.2 11.629-8.155 18.734-8.155h972.8c0.010 0 0.022 0 0.032 0 14.139 0 25.6 11.461 25.6 25.6 0 1.067-0.066 2.117-0.192 3.15zM435.2 936.597l168.597-168.597h-337.194l168.597 168.597zM53.094 51.2l47.542 665.6h104.155c0.005 0 0.011 0 0.016 0h718.557l47.542-665.6h-917.813zM512 307.2c-56.461 0-108.91 30.506-147.686 85.901-36.83 52.614-57.114 122.115-57.114 195.699 0 14.138 11.462 25.6 25.6 25.6s25.6-11.462 25.6-25.6c0-63.176 16.997-122.25 47.859-166.339 28.917-41.309 66.47-64.061 105.741-64.061s76.824 22.752 105.741 64.061c30.862 44.090 47.859 103.163 47.859 166.339 0 14.138 11.461 25.6 25.6 25.6s25.6-11.462 25.6-25.6c0-73.584-20.285-143.085-57.114-195.699-38.778-55.395-91.226-85.901-147.686-85.901z" />
<glyph unicode="&#xe74d;" glyph-name="cart" d="M409.6 0c-56.464 0-102.4 45.936-102.4 102.4s45.936 102.4 102.4 102.4 102.4-45.936 102.4-102.4-45.936-102.4-102.4-102.4zM409.6 153.6c-28.232 0-51.2-22.968-51.2-51.2s22.968-51.2 51.2-51.2 51.2 22.968 51.2 51.2-22.968 51.2-51.2 51.2zM768 0c-56.464 0-102.4 45.936-102.4 102.4s45.936 102.4 102.4 102.4 102.4-45.936 102.4-102.4-45.936-102.4-102.4-102.4zM768 153.6c-28.232 0-51.2-22.968-51.2-51.2s22.968-51.2 51.2-51.2 51.2 22.968 51.2 51.2-22.968 51.2-51.2 51.2zM898.021 795.312c-12.859 15.181-32.258 23.888-53.221 23.888h-626.846l-5.085 30.506c-6.72 40.315-43.998 71.894-84.869 71.894h-51.2c-14.138 0-25.6-11.462-25.6-25.6s11.462-25.6 25.6-25.6h51.2c15.722 0 31.781-13.603 34.366-29.112l85.566-513.395c6.718-40.314 43.997-71.893 84.867-71.893h512c14.139 0 25.6 11.461 25.6 25.6s-11.461 25.6-25.6 25.6h-512c-15.722 0-31.781 13.603-34.366 29.11l-12.63 75.784 510.206 44.366c39.69 3.451 75.907 36.938 82.458 76.234l34.366 206.194c3.448 20.677-1.952 41.243-14.813 56.424zM862.331 747.306l-34.366-206.194c-2.699-16.186-20.043-32.221-36.39-33.645l-514.214-44.714-50.874 305.246h618.314c5.968 0 10.995-2.054 14.155-5.782 3.157-3.73 4.357-9.024 3.376-14.912z" />
<glyph unicode="&#xe74e;" glyph-name="cart-empty" d="M409.6 0c-56.464 0-102.4 45.936-102.4 102.4s45.936 102.4 102.4 102.4 102.4-45.936 102.4-102.4-45.936-102.4-102.4-102.4zM409.6 153.6c-28.232 0-51.2-22.968-51.2-51.2s22.968-51.2 51.2-51.2 51.2 22.968 51.2 51.2-22.968 51.2-51.2 51.2zM768 0c-56.464 0-102.4 45.936-102.4 102.4s45.936 102.4 102.4 102.4 102.4-45.936 102.4-102.4-45.936-102.4-102.4-102.4zM768 153.6c-28.232 0-51.2-22.968-51.2-51.2s22.968-51.2 51.2-51.2 51.2 22.968 51.2 51.2-22.968 51.2-51.2 51.2zM901.021 818.702c-13.874 2.774-27.35-6.219-30.123-20.083l-41.16-205.795c-3.282-16.413-21.459-32.662-38.136-34.091l-522.77-44.808-55.963 335.781c-6.72 40.315-43.998 71.894-84.869 71.894h-51.2c-14.138 0-25.6-11.462-25.6-25.6s11.462-25.6 25.6-25.6h51.2c15.722 0 31.781-13.603 34.366-29.112l85.566-513.395c6.718-40.314 43.997-71.893 84.867-71.893h512c14.139 0 25.6 11.461 25.6 25.6s-11.461 25.6-25.6 25.6h-512c-15.722 0-31.781 13.603-34.366 29.11l-21.158 126.95 518.698 44.459c39.344 3.371 76.227 36.346 83.97 75.066l41.16 205.795c2.773 13.862-6.218 27.349-20.082 30.122z" />
<glyph unicode="&#xe755;" glyph-name="tag" d="M384 46.87c-20.554 0-39.84 7.966-54.306 22.43l-260.394 260.395c-14.466 14.464-22.432 33.75-22.432 54.304s7.966 39.84 22.434 54.306l439.594 439.592c24.91 24.914 70.269 43.702 105.504 43.702h230.4c42.349 0 76.8-34.453 76.8-76.8v-230.4c0-35.232-18.787-80.59-43.699-105.504l-439.595-439.595c-14.466-14.466-33.752-22.43-54.306-22.43zM614.4 870.4c-21.246 0-54.278-13.682-69.299-28.704l-439.595-439.595c-4.795-4.795-7.435-11.224-7.435-18.101s2.64-13.306 7.435-18.099l260.394-260.397c4.795-4.794 11.224-7.434 18.101-7.434s13.307 2.64 18.102 7.435l439.594 439.592c15.021 15.024 28.704 48.058 28.704 69.302v230.4c0 14.115-11.485 25.6-25.6 25.6h-230.4zM742.4 665.6c-42.349 0-76.8 34.453-76.8 76.8s34.451 76.8 76.8 76.8 76.8-34.453 76.8-76.8-34.451-76.8-76.8-76.8zM742.4 768c-14.115 0-25.6-11.485-25.6-25.6s11.485-25.6 25.6-25.6 25.6 11.485 25.6 25.6-11.485 25.6-25.6 25.6z" />
<glyph unicode="&#xe756;" glyph-name="tags" d="M793.6 614.4c-42.349 0-76.8 34.453-76.8 76.8s34.451 76.8 76.8 76.8 76.8-34.453 76.8-76.8-34.451-76.8-76.8-76.8zM793.6 716.8c-14.115 0-25.6-11.485-25.6-25.6s11.485-25.6 25.6-25.6 25.6 11.485 25.6 25.6-11.485 25.6-25.6 25.6zM896 870.4h-179.2c-35.235 0-80.594-18.789-105.504-43.701l-388.394-388.394c-14.466-14.466-22.434-33.752-22.434-54.306s7.966-39.84 22.432-54.304l133.234-133.234-56.078-32.378c-5.874-3.39-12.768-4.275-19.41-2.498-6.643 1.779-12.17 5.994-15.56 11.867l-184.125 318.914c-7.058 12.226-2.854 27.912 9.37 34.97l408.869 236.061c12.243 7.069 16.438 22.726 9.37 34.97-7.070 12.246-22.728 16.437-34.97 9.37l-408.869-236.058c-17.717-10.229-30.403-26.795-35.723-46.65s-2.616-40.544 7.613-58.262l184.126-318.915c10.229-17.717 26.795-30.403 46.65-35.723 6.651-1.781 13.397-2.664 20.093-2.664 13.291 0 26.389 3.475 38.17 10.277l67.96 39.237 38.477-38.478c14.466-14.466 33.75-22.432 54.306-22.432s39.84 7.966 54.304 22.432l388.395 388.395c24.912 24.914 43.699 70.27 43.699 105.504v179.2c0 42.347-34.451 76.8-76.8 76.8zM921.6 614.4c0-21.246-13.683-54.278-28.704-69.301l-388.395-388.395c-4.795-4.794-11.224-7.434-18.101-7.434s-13.307 2.64-18.101 7.434l-209.194 209.197c-4.795 4.794-7.435 11.222-7.435 18.099s2.64 13.306 7.435 18.101l388.395 388.394c15.021 15.024 48.053 28.706 69.299 28.706h179.2c14.115 0 25.6-11.485 25.6-25.6v-179.2z" />
<glyph unicode="&#xe759;" glyph-name="credit-card2" d="M947.2 870.4h-870.4c-42.347 0-76.8-34.453-76.8-76.8v-563.2c0-42.349 34.453-76.8 76.8-76.8h870.4c42.349 0 76.8 34.451 76.8 76.8v563.2c0 42.347-34.451 76.8-76.8 76.8zM76.8 819.2h870.4c14.115 0 25.6-11.485 25.6-25.6v-25.6h-921.6v25.6c0 14.115 11.485 25.6 25.6 25.6zM972.8 716.8v-153.6h-921.6v153.6h921.6zM947.2 204.8h-870.4c-14.115 0-25.6 11.485-25.6 25.6v281.6h921.6v-281.6c0-14.115-11.485-25.6-25.6-25.6zM870.4 307.2h51.2v-51.2h-51.2v51.2zM665.6 307.2h153.6v-51.2h-153.6v51.2zM512 307.2h102.4v-51.2h-102.4v51.2z" />
<glyph unicode="&#xe76a;" glyph-name="telephone" d="M819.2 0c-90.691 0-187.154 25.699-286.706 76.386-91.794 46.736-182.48 113.654-262.258 193.522-79.763 79.853-146.595 170.624-193.272 262.498-50.608 99.61-76.269 196.102-76.269 286.795 0 58.774 54.765 115.55 78.31 137.232 33.85 31.17 87.104 67.568 125.794 67.568 19.245 0 41.803-12.589 70.994-39.616 21.782-20.17 46.27-47.51 70.814-79.067 14.794-19.021 88.592-116.267 88.592-162.917 0-38.27-43.25-64.853-89.037-92.998-17.694-10.875-35.992-22.122-49.226-32.73-14.114-11.315-16.645-17.288-17.061-18.629 48.602-121.128 197.141-269.651 318.203-318.184 1.085 0.341 7.067 2.699 18.592 17.075 10.608 13.234 21.854 31.531 32.73 49.227 28.144 45.789 54.726 89.038 92.998 89.038 46.648 0 143.896-73.798 162.917-88.592 31.557-24.546 58.898-49.032 79.067-70.816 27.029-29.189 39.616-51.747 39.616-70.992 0-38.701-36.378-92.115-67.528-126.099-21.693-23.662-78.491-78.701-137.272-78.701zM204.477 972.797c-13.731-0.262-50.634-17.054-90.789-54.029-38.115-35.099-61.792-73.25-61.792-99.568 0-344.523 423.093-768 767.304-768 26.28 0 64.418 23.795 99.528 62.099 37.003 40.366 53.806 77.413 54.069 91.178-1.662 9.728-28.57 47.563-102.232 104.283-63.322 48.762-114.699 74.886-127.901 75.237-0.925-0.274-6.656-2.467-18.277-17.222-10.104-12.832-20.912-30.418-31.366-47.424-28.683-46.666-55.774-90.744-95.122-90.744-6.336 0-12.597 1.219-18.608 3.624-134.376 53.75-293.31 212.685-347.061 347.061-6.456 16.138-7.485 41.414 24.272 70.184 16.882 15.293 40.25 29.656 62.848 43.546 17.006 10.453 34.59 21.261 47.422 31.366 14.755 11.619 16.95 17.352 17.222 18.277-0.352 13.203-26.475 64.579-75.237 127.902-56.72 73.659-94.554 100.568-104.282 102.23z" />
<glyph unicode="&#xe76c;" glyph-name="phone-wave" d="M819.2 0c-90.691 0-187.154 25.699-286.706 76.386-91.794 46.736-182.48 113.654-262.258 193.522-79.763 79.853-146.595 170.624-193.272 262.498-50.608 99.61-76.269 196.102-76.269 286.795 0 58.774 54.765 115.55 78.31 137.232 33.85 31.17 87.104 67.568 125.794 67.568 19.245 0 41.803-12.589 70.994-39.616 21.782-20.17 46.27-47.51 70.814-79.067 14.794-19.021 88.592-116.267 88.592-162.917 0-38.27-43.25-64.853-89.037-92.998-17.694-10.875-35.992-22.122-49.226-32.73-14.114-11.315-16.645-17.288-17.061-18.629 48.602-121.128 197.141-269.651 318.203-318.184 1.085 0.341 7.067 2.699 18.592 17.075 10.608 13.234 21.854 31.531 32.73 49.227 28.144 45.789 54.726 89.038 92.998 89.038 46.648 0 143.896-73.798 162.917-88.592 31.557-24.546 58.898-49.032 79.067-70.816 27.029-29.189 39.616-51.747 39.616-70.992 0-38.701-36.378-92.115-67.528-126.099-21.693-23.662-78.491-78.701-137.272-78.701zM204.477 972.797c-13.731-0.262-50.634-17.054-90.789-54.029-38.115-35.099-61.792-73.25-61.792-99.568 0-344.523 423.093-768 767.304-768 26.28 0 64.418 23.795 99.528 62.099 37.003 40.366 53.806 77.413 54.069 91.174-1.662 9.728-28.57 47.566-102.232 104.283-63.322 48.765-114.701 74.89-127.901 75.237-0.925-0.274-6.656-2.467-18.277-17.222-10.104-12.834-20.912-30.421-31.366-47.427-28.683-46.666-55.771-90.744-95.118-90.744-6.339 0-12.597 1.219-18.611 3.626-134.373 53.752-293.307 212.685-347.061 347.062-6.456 16.138-7.485 41.414 24.272 70.184 16.882 15.293 40.25 29.656 62.848 43.546 17.006 10.453 34.59 21.261 47.422 31.366 14.755 11.619 16.95 17.352 17.222 18.277-0.352 13.203-26.475 64.579-75.237 127.902-56.72 73.662-94.554 100.571-104.282 102.234zM998.4 563.2c-14.139 0-25.6 11.462-25.6 25.6 0 211.738-172.261 384-384 384-14.139 0-25.6 11.462-25.6 25.6s11.461 25.6 25.6 25.6c116.245 0 225.534-45.269 307.733-127.467s127.467-191.486 127.467-307.733c0-14.138-11.461-25.6-25.6-25.6zM844.8 563.2c-14.139 0-25.6 11.462-25.6 25.6 0 127.043-103.357 230.4-230.4 230.4-14.139 0-25.6 11.462-25.6 25.6s11.461 25.6 25.6 25.6c155.275 0 281.6-126.325 281.6-281.6 0-14.138-11.461-25.6-25.6-25.6zM691.2 563.2c-14.139 0-25.6 11.462-25.6 25.6 0 42.347-34.451 76.8-76.8 76.8-14.139 0-25.6 11.462-25.6 25.6s11.461 25.6 25.6 25.6c70.579 0 128-57.421 128-128 0-14.138-11.461-25.6-25.6-25.6z" />
<glyph unicode="&#xe76e;" glyph-name="phone-outgoing" d="M819.2 0c-90.691 0-187.154 25.699-286.706 76.386-91.794 46.736-182.48 113.654-262.258 193.522-79.763 79.853-146.595 170.624-193.272 262.498-50.608 99.61-76.269 196.102-76.269 286.795 0 58.774 54.765 115.55 78.31 137.232 33.85 31.17 87.104 67.568 125.794 67.568 19.245 0 41.803-12.589 70.994-39.616 21.782-20.17 46.27-47.51 70.814-79.067 14.794-19.021 88.592-116.267 88.592-162.917 0-38.27-43.25-64.853-89.037-92.998-17.694-10.875-35.992-22.122-49.226-32.73-14.114-11.315-16.645-17.288-17.061-18.629 48.602-121.128 197.141-269.651 318.203-318.184 1.085 0.341 7.067 2.699 18.592 17.075 10.608 13.234 21.854 31.531 32.73 49.227 28.144 45.789 54.726 89.038 92.998 89.038 46.648 0 143.896-73.798 162.917-88.592 31.557-24.546 58.898-49.032 79.067-70.816 27.029-29.189 39.616-51.747 39.616-70.992 0-38.701-36.378-92.115-67.528-126.099-21.693-23.662-78.491-78.701-137.272-78.701zM204.477 972.797c-13.731-0.262-50.634-17.054-90.789-54.029-38.115-35.099-61.792-73.25-61.792-99.568 0-344.523 423.093-768 767.304-768 26.28 0 64.418 23.795 99.528 62.099 37.003 40.366 53.806 77.413 54.069 91.176-1.662 9.728-28.57 47.565-102.232 104.283-63.322 48.763-114.701 74.888-127.901 75.237-0.925-0.274-6.656-2.467-18.277-17.222-10.104-12.834-20.912-30.419-31.366-47.426-28.683-46.666-55.773-90.744-95.12-90.744-6.338 0-12.597 1.219-18.61 3.626-134.374 53.75-293.309 212.685-347.061 347.061-6.456 16.138-7.485 41.414 24.272 70.184 16.882 15.293 40.25 29.656 62.848 43.546 17.006 10.453 34.59 21.261 47.422 31.366 14.755 11.619 16.95 17.352 17.222 18.277-0.352 13.203-26.475 64.579-75.237 127.902-56.72 73.661-94.554 100.57-104.282 102.232zM896 921.6h-204.8c-14.139 0-25.6-11.462-25.6-25.6s11.461-25.6 25.6-25.6h142.997l-263.498-263.499c-9.998-9.997-9.998-26.206 0-36.203 4.998-4.998 11.549-7.498 18.101-7.498s13.102 2.499 18.101 7.499l263.499 263.498v-142.997c0-14.138 11.461-25.6 25.6-25.6s25.6 11.462 25.6 25.6v204.8c0 14.138-11.461 25.6-25.6 25.6z" />
<glyph unicode="&#xe777;" glyph-name="telephone2" d="M916.19 568.491c-53.283-0.002-149.901 19.214-180.016 49.326-18.466 18.466-22.854 41.64-26.381 60.262-4.344 22.931-6.95 29.755-17.010 34.077-46.194 19.853-112.456 31.238-181.8 31.238-68.621 0-134.16-11.189-179.81-30.699-9.939-4.248-12.499-11.050-16.741-33.938-3.459-18.672-7.765-41.91-26.234-60.381-16.814-16.813-51.976-28.36-78.512-35.086-34.218-8.674-70.85-13.646-100.502-13.646-33.982 0-56.965 6.461-70.258 19.755-20.021 20.019-32.797 47.4-35.050 75.12-1.901 23.365 2.6 57.979 34.824 90.205 52.315 52.315 122.699 93.11 209.195 121.253 79.549 25.882 170.093 39.562 261.842 39.562 92.378 0 183.67-13.848 264.006-40.048 87.304-28.472 158.35-69.688 211.163-122.499 53.766-53.765 40.451-125.102 0.629-164.928-13.173-13.17-35.856-19.571-69.347-19.573zM510.986 794.595c77.157 0 148.901-12.571 202.014-35.398 36.51-15.69 42.632-48 47.099-71.59 2.672-14.104 4.979-26.285 12.28-33.586 12.915-12.914 87.362-34.331 143.811-34.33 24.638 0 32.398 4.219 33.4 4.835 15.851 16.061 35.757 55.621-0.885 92.261-92.392 92.392-256.493 147.552-438.966 147.552-180.973 0-343.526-54.51-434.832-145.818-14.76-14.76-21.488-31.533-19.998-49.853 1.258-15.462 8.72-31.445 19.986-42.827 0.965-0.606 8.846-5 34.291-5 56.242 0 130.12 21.048 142.811 33.738 7.226 7.227 9.482 19.403 12.094 33.502 4.382 23.659 10.386 56.061 46.963 71.691 52.538 22.456 123.541 34.822 199.931 34.822zM844.8 102.4h-665.6c-34.347 0-66.043 13.509-89.248 38.040-23.206 24.531-34.936 56.928-33.032 91.222 0.218 3.928 6.024 97.307 65.029 191.453 34.904 55.694 81.181 100.088 137.541 131.946 69.658 39.374 154.613 59.339 252.51 59.339s182.853-19.965 252.509-59.339c56.363-31.858 102.637-76.251 137.542-131.946 59.005-94.146 64.811-187.525 65.030-191.453 1.904-34.296-9.827-66.691-33.034-91.222s-54.901-38.040-89.248-38.040zM512 563.2c-159.592 0-275.859-55.696-345.574-165.541-52.726-83.077-58.336-168.038-58.387-168.888-1.114-20.050 5.67-38.942 19.107-53.146s31.923-22.026 52.054-22.026h665.6c20.131 0 38.618 7.822 52.054 22.027 13.435 14.203 20.222 33.096 19.104 53.195-0.046 0.798-5.658 85.762-58.384 168.837-69.715 109.845-185.984 165.541-345.574 165.541zM512 204.8c-84.696 0-153.6 68.904-153.6 153.6s68.904 153.6 153.6 153.6 153.6-68.904 153.6-153.6-68.904-153.6-153.6-153.6zM512 460.8c-56.464 0-102.4-45.936-102.4-102.4s45.936-102.4 102.4-102.4c56.464 0 102.4 45.936 102.4 102.4s-45.936 102.4-102.4 102.4z" />
<glyph unicode="&#xe778;" glyph-name="pushpin" d="M921.6 676.203l-270.997 270.997c-9.65 9.65-22.507 14.965-36.203 14.965s-26.554-5.314-36.203-14.965l-14.997-14.997c-14.834-14.834-25.6-40.826-25.6-61.803v-51.2c0-7.288-5.45-20.446-10.603-25.6l-142.997-142.997c-5.152-5.154-18.312-10.603-25.6-10.603h-51.2c-20.978 0-46.97-10.766-61.803-25.6l-14.997-14.997c-19.963-19.963-19.963-52.443 0-72.406l79.534-79.534-253.426-329.453c-7.84-10.192-6.902-24.619 2.189-33.71 4.966-4.966 11.522-7.499 18.109-7.499 5.477 0 10.974 1.75 15.602 5.309l329.453 253.426 79.536-79.534c9.65-9.651 22.507-14.966 36.203-14.966s26.554 5.314 36.203 14.966l14.997 14.997c14.834 14.834 25.6 40.826 25.6 61.803v51.2c0 7.288 5.45 20.446 10.603 25.6l142.997 142.997c5.154 5.154 18.312 10.603 25.6 10.603h51.2c20.976 0 46.968 10.766 61.803 25.6l14.997 14.997c9.65 9.65 14.966 22.507 14.966 36.203s-5.317 26.554-14.966 36.203zM216.757 242.358l129.688 168.594 38.906-38.906-168.594-129.688zM870.4 625.003c-5.154-5.154-18.312-10.603-25.6-10.603h-51.2c-20.976 0-46.968-10.766-61.803-25.6l-142.997-142.997c-14.834-14.834-25.6-40.826-25.6-61.803v-51.2c0-7.288-5.45-20.446-10.603-25.6l-14.93-14.958c-0.006-0.003-0.032-0.008-0.067-0.008v-0.032l-270.997 270.998 14.998 14.998c5.152 5.154 18.312 10.603 25.6 10.603h51.2c20.978 0 46.97 10.766 61.803 25.6l142.995 142.995c14.834 14.834 25.6 40.826 25.6 61.803v51.2c0 7.288 5.45 20.446 10.603 25.6l14.997 14.997 270.997-270.997-14.997-14.997z" />
<glyph unicode="&#xe77a;" glyph-name="map-marker" d="M512 0c-7.856 0-15.277 3.606-20.13 9.784-2.931 3.73-72.587 92.864-143.229 224.51-41.581 77.491-74.742 153.568-98.565 226.118-30.043 91.499-45.277 177.758-45.277 256.387 0 169.39 137.81 307.2 307.2 307.2s307.2-137.81 307.2-307.2c0-78.629-15.234-164.888-45.278-256.386-23.822-72.55-56.984-148.629-98.565-226.118-70.64-131.646-140.298-220.781-143.229-224.51-4.851-6.179-12.272-9.786-20.128-9.786zM512 972.8c-141.158 0-256-114.842-256-256 0-166.597 74.914-341.176 137.758-458.296 46.186-86.074 92.634-154.306 118.237-189.938 25.709 35.789 72.429 104.432 118.688 190.76 62.643 116.902 137.317 291.163 137.317 457.474 0 141.158-114.84 256-256 256zM512 563.2c-84.696 0-153.6 68.904-153.6 153.6s68.904 153.6 153.6 153.6 153.6-68.904 153.6-153.6-68.904-153.6-153.6-153.6zM512 819.2c-56.464 0-102.4-45.936-102.4-102.4s45.936-102.4 102.4-102.4c56.464 0 102.4 45.936 102.4 102.4s-45.936 102.4-102.4 102.4z" />
<glyph unicode="&#xe783;" glyph-name="location" d="M435.202-0.002c-2.205 0-4.435 0.285-6.642 0.878-11.186 3.003-18.96 13.142-18.96 24.723v384h-384c-11.581 0-21.72 7.774-24.723 18.96-3.005 11.184 1.874 22.994 11.898 28.795l972.8 563.2c10.037 5.811 22.726 4.147 30.928-4.053 8.202-8.202 9.864-20.891 4.053-30.93l-563.2-972.8c-4.658-8.045-13.186-12.774-22.154-12.774zM120.912 460.8h314.288c14.138 0 25.6-11.461 25.6-25.6v-314.288l467.346 807.234-807.234-467.346z" />
<glyph unicode="&#xe785;" glyph-name="calendar-empty" d="M947.2 921.6h-128v25.6c0 14.138-11.461 25.6-25.6 25.6s-25.6-11.462-25.6-25.6v-25.6h-512v25.6c0 14.138-11.462 25.6-25.6 25.6s-25.6-11.462-25.6-25.6v-25.6h-128c-42.347 0-76.8-34.453-76.8-76.8v-716.8c0-42.349 34.453-76.8 76.8-76.8h870.4c42.349 0 76.8 34.451 76.8 76.8v716.8c0 42.347-34.451 76.8-76.8 76.8zM76.8 870.4h128v-76.8c0-14.138 11.462-25.6 25.6-25.6s25.6 11.462 25.6 25.6v76.8h512v-76.8c0-14.138 11.461-25.6 25.6-25.6s25.6 11.462 25.6 25.6v76.8h128c14.115 0 25.6-11.485 25.6-25.6v-128h-921.6v128c0 14.115 11.485 25.6 25.6 25.6zM947.2 102.4h-870.4c-14.115 0-25.6 11.485-25.6 25.6v537.6h921.6v-537.6c0-14.115-11.485-25.6-25.6-25.6z" />
<glyph unicode="&#xe786;" glyph-name="calendar-check" d="M947.2 921.6h-128v25.6c0 14.138-11.461 25.6-25.6 25.6s-25.6-11.462-25.6-25.6v-25.6h-512v25.6c0 14.138-11.462 25.6-25.6 25.6s-25.6-11.462-25.6-25.6v-25.6h-128c-42.347 0-76.8-34.453-76.8-76.8v-716.8c0-42.349 34.453-76.8 76.8-76.8h870.4c42.349 0 76.8 34.451 76.8 76.8v716.8c0 42.347-34.451 76.8-76.8 76.8zM76.8 870.4h128v-76.8c0-14.138 11.462-25.6 25.6-25.6s25.6 11.462 25.6 25.6v76.8h512v-76.8c0-14.138 11.461-25.6 25.6-25.6s25.6 11.462 25.6 25.6v76.8h128c14.115 0 25.6-11.485 25.6-25.6v-128h-921.6v128c0 14.115 11.485 25.6 25.6 25.6zM947.2 102.4h-870.4c-14.115 0-25.6 11.485-25.6 25.6v537.6h921.6v-537.6c0-14.115-11.485-25.6-25.6-25.6zM435.2 230.4c-6.552 0-13.102 2.499-18.102 7.499l-102.4 102.4c-9.997 9.997-9.997 26.206 0 36.203s26.206 9.997 36.205 0l84.298-84.298 237.899 237.898c9.997 9.997 26.206 9.997 36.203 0 9.998-9.997 9.998-26.206 0-36.203l-256-256c-5-5-11.55-7.499-18.102-7.499z" />
<glyph unicode="&#xe787;" glyph-name="calendar-cross" d="M947.2 921.6h-128v25.6c0 14.138-11.461 25.6-25.6 25.6s-25.6-11.462-25.6-25.6v-25.6h-512v25.6c0 14.138-11.462 25.6-25.6 25.6s-25.6-11.462-25.6-25.6v-25.6h-128c-42.347 0-76.8-34.453-76.8-76.8v-716.8c0-42.349 34.453-76.8 76.8-76.8h870.4c42.349 0 76.8 34.451 76.8 76.8v716.8c0 42.347-34.451 76.8-76.8 76.8zM76.8 870.4h128v-76.8c0-14.138 11.462-25.6 25.6-25.6s25.6 11.462 25.6 25.6v76.8h512v-76.8c0-14.138 11.461-25.6 25.6-25.6s25.6 11.462 25.6 25.6v76.8h128c14.115 0 25.6-11.485 25.6-25.6v-128h-921.6v128c0 14.115 11.485 25.6 25.6 25.6zM947.2 102.4h-870.4c-14.115 0-25.6 11.485-25.6 25.6v537.6h921.6v-537.6c0-14.115-11.485-25.6-25.6-25.6zM548.203 384l135.499 135.499c9.998 9.997 9.998 26.206 0 36.203-9.997 9.997-26.206 9.997-36.203 0l-135.499-135.499-135.499 135.499c-9.997 9.997-26.206 9.997-36.203 0-9.998-9.997-9.998-26.206 0-36.203l135.499-135.499-135.499-135.499c-9.998-9.997-9.998-26.206 0-36.203 5-4.998 11.55-7.498 18.102-7.498s13.102 2.499 18.101 7.499l135.499 135.498 135.499-135.499c4.998-4.998 11.549-7.498 18.101-7.498s13.102 2.499 18.101 7.499c9.998 9.997 9.998 26.206 0 36.203l-135.498 135.498z" />
<glyph unicode="&#xe788;" glyph-name="calendar-31" d="M947.2 921.6h-128v25.6c0 14.138-11.461 25.6-25.6 25.6s-25.6-11.462-25.6-25.6v-25.6h-512v25.6c0 14.138-11.462 25.6-25.6 25.6s-25.6-11.462-25.6-25.6v-25.6h-128c-42.347 0-76.8-34.453-76.8-76.8v-716.8c0-42.349 34.453-76.8 76.8-76.8h870.4c42.349 0 76.8 34.451 76.8 76.8v716.8c0 42.347-34.451 76.8-76.8 76.8zM76.8 870.4h128v-76.8c0-14.138 11.462-25.6 25.6-25.6s25.6 11.462 25.6 25.6v76.8h512v-76.8c0-14.138 11.461-25.6 25.6-25.6s25.6 11.462 25.6 25.6v76.8h128c14.115 0 25.6-11.485 25.6-25.6v-128h-921.6v128c0 14.115 11.485 25.6 25.6 25.6zM947.2 102.4h-870.4c-14.115 0-25.6 11.485-25.6 25.6v537.6h921.6v-537.6c0-14.115-11.485-25.6-25.6-25.6zM486.4 204.8h-153.6c-14.138 0-25.6 11.461-25.6 25.6s11.462 25.6 25.6 25.6h128v102.4h-76.8c-14.138 0-25.6 11.461-25.6 25.6s11.462 25.6 25.6 25.6h76.8v102.4h-128c-14.138 0-25.6 11.461-25.6 25.6s11.462 25.6 25.6 25.6h153.6c14.138 0 25.6-11.461 25.6-25.6v-307.2c0-14.139-11.462-25.6-25.6-25.6zM691.2 204.8c-14.139 0-25.6 11.461-25.6 25.6v307.2c0 14.139 11.461 25.6 25.6 25.6s25.6-11.461 25.6-25.6v-307.2c0-14.139-11.461-25.6-25.6-25.6z" />
<glyph unicode="&#xe789;" glyph-name="calendar-full" d="M947.2 921.6h-128v25.6c0 14.138-11.461 25.6-25.6 25.6s-25.6-11.462-25.6-25.6v-25.6h-512v25.6c0 14.138-11.462 25.6-25.6 25.6s-25.6-11.462-25.6-25.6v-25.6h-128c-42.347 0-76.8-34.453-76.8-76.8v-716.8c0-42.349 34.453-76.8 76.8-76.8h870.4c42.349 0 76.8 34.451 76.8 76.8v716.8c0 42.347-34.451 76.8-76.8 76.8zM76.8 870.4h128v-76.8c0-14.138 11.462-25.6 25.6-25.6s25.6 11.462 25.6 25.6v76.8h512v-76.8c0-14.138 11.461-25.6 25.6-25.6s25.6 11.462 25.6 25.6v76.8h128c14.115 0 25.6-11.485 25.6-25.6v-128h-921.6v128c0 14.115 11.485 25.6 25.6 25.6zM947.2 102.4h-870.4c-14.115 0-25.6 11.485-25.6 25.6v537.6h921.6v-537.6c0-14.115-11.485-25.6-25.6-25.6zM384 512h-51.2c-14.138 0-25.6 11.461-25.6 25.6s11.462 25.6 25.6 25.6h51.2c14.138 0 25.6-11.461 25.6-25.6s-11.462-25.6-25.6-25.6zM537.6 512h-51.2c-14.138 0-25.6 11.461-25.6 25.6s11.462 25.6 25.6 25.6h51.2c14.139 0 25.6-11.461 25.6-25.6s-11.461-25.6-25.6-25.6zM691.2 512h-51.2c-14.139 0-25.6 11.461-25.6 25.6s11.461 25.6 25.6 25.6h51.2c14.139 0 25.6-11.461 25.6-25.6s-11.461-25.6-25.6-25.6zM844.8 512h-51.2c-14.139 0-25.6 11.461-25.6 25.6s11.461 25.6 25.6 25.6h51.2c14.139 0 25.6-11.461 25.6-25.6s-11.461-25.6-25.6-25.6zM230.4 409.6h-51.2c-14.138 0-25.6 11.461-25.6 25.6s11.462 25.6 25.6 25.6h51.2c14.138 0 25.6-11.461 25.6-25.6s-11.462-25.6-25.6-25.6zM384 409.6h-51.2c-14.138 0-25.6 11.461-25.6 25.6s11.462 25.6 25.6 25.6h51.2c14.138 0 25.6-11.461 25.6-25.6s-11.462-25.6-25.6-25.6zM537.6 409.6h-51.2c-14.138 0-25.6 11.461-25.6 25.6s11.462 25.6 25.6 25.6h51.2c14.139 0 25.6-11.461 25.6-25.6s-11.461-25.6-25.6-25.6zM691.2 409.6h-51.2c-14.139 0-25.6 11.461-25.6 25.6s11.461 25.6 25.6 25.6h51.2c14.139 0 25.6-11.461 25.6-25.6s-11.461-25.6-25.6-25.6zM844.8 409.6h-51.2c-14.139 0-25.6 11.461-25.6 25.6s11.461 25.6 25.6 25.6h51.2c14.139 0 25.6-11.461 25.6-25.6s-11.461-25.6-25.6-25.6zM230.4 307.2h-51.2c-14.138 0-25.6 11.461-25.6 25.6s11.462 25.6 25.6 25.6h51.2c14.138 0 25.6-11.461 25.6-25.6s-11.462-25.6-25.6-25.6zM384 307.2h-51.2c-14.138 0-25.6 11.461-25.6 25.6s11.462 25.6 25.6 25.6h51.2c14.138 0 25.6-11.461 25.6-25.6s-11.462-25.6-25.6-25.6zM537.6 307.2h-51.2c-14.138 0-25.6 11.461-25.6 25.6s11.462 25.6 25.6 25.6h51.2c14.139 0 25.6-11.461 25.6-25.6s-11.461-25.6-25.6-25.6zM691.2 307.2h-51.2c-14.139 0-25.6 11.461-25.6 25.6s11.461 25.6 25.6 25.6h51.2c14.139 0 25.6-11.461 25.6-25.6s-11.461-25.6-25.6-25.6zM844.8 307.2h-51.2c-14.139 0-25.6 11.461-25.6 25.6s11.461 25.6 25.6 25.6h51.2c14.139 0 25.6-11.461 25.6-25.6s-11.461-25.6-25.6-25.6zM230.4 204.8h-51.2c-14.138 0-25.6 11.461-25.6 25.6s11.462 25.6 25.6 25.6h51.2c14.138 0 25.6-11.461 25.6-25.6s-11.462-25.6-25.6-25.6zM384 204.8h-51.2c-14.138 0-25.6 11.461-25.6 25.6s11.462 25.6 25.6 25.6h51.2c14.138 0 25.6-11.461 25.6-25.6s-11.462-25.6-25.6-25.6zM537.6 204.8h-51.2c-14.138 0-25.6 11.461-25.6 25.6s11.462 25.6 25.6 25.6h51.2c14.139 0 25.6-11.461 25.6-25.6s-11.461-25.6-25.6-25.6zM691.2 204.8h-51.2c-14.139 0-25.6 11.461-25.6 25.6s11.461 25.6 25.6 25.6h51.2c14.139 0 25.6-11.461 25.6-25.6s-11.461-25.6-25.6-25.6zM844.8 204.8h-51.2c-14.139 0-25.6 11.461-25.6 25.6s11.461 25.6 25.6 25.6h51.2c14.139 0 25.6-11.461 25.6-25.6s-11.461-25.6-25.6-25.6z" />
<glyph unicode="&#xe78c;" glyph-name="calendar-user" d="M947.2 921.6h-128v25.6c0 14.138-11.461 25.6-25.6 25.6s-25.6-11.462-25.6-25.6v-25.6h-512v25.6c0 14.138-11.462 25.6-25.6 25.6s-25.6-11.462-25.6-25.6v-25.6h-128c-42.347 0-76.8-34.453-76.8-76.8v-716.8c0-42.349 34.453-76.8 76.8-76.8h870.4c42.349 0 76.8 34.451 76.8 76.8v716.8c0 42.347-34.451 76.8-76.8 76.8zM972.8 128c0-14.115-11.485-25.6-25.6-25.6h-870.4c-14.115 0-25.6 11.485-25.6 25.6v716.8c0 14.115 11.485 25.6 25.6 25.6h128v-76.8c0-14.138 11.462-25.6 25.6-25.6s25.6 11.462 25.6 25.6v76.8h512v-76.8c0-14.138 11.461-25.6 25.6-25.6s25.6 11.462 25.6 25.6v76.8h128c14.115 0 25.6-11.485 25.6-25.6v-716.8zM512 460.8c-84.696 0-153.6 68.902-153.6 153.6 0 84.696 68.904 153.6 153.6 153.6s153.6-68.904 153.6-153.6c0-84.698-68.904-153.6-153.6-153.6zM512 716.8c-56.464 0-102.4-45.936-102.4-102.4s45.936-102.4 102.4-102.4 102.4 45.936 102.4 102.4-45.936 102.4-102.4 102.4zM691.2 204.8h-358.4c-21.75 0-40.766 9.075-52.171 24.899s-14.002 36.731-7.123 57.366c1.666 5.005 43.090 122.534 238.494 122.534s236.829-117.53 238.496-122.533c6.88-20.634 4.283-41.544-7.122-57.366-11.408-15.826-30.424-24.901-52.174-24.901zM322.008 270.667c-1.517-4.675-1.461-8.786 0.157-11.030 1.64-2.278 5.616-3.637 10.635-3.637h358.4c5.019 0 8.995 1.36 10.634 3.637 1.619 2.242 1.675 6.355 0.158 11.030-0.573 1.502-8.981 22.616-34.774 43.376-36.051 29.019-89.725 44.357-155.218 44.357-65.491 0-119.165-15.338-155.216-44.357-25.798-20.763-34.205-41.878-34.776-43.376z" />
<glyph unicode="&#xe798;" glyph-name="screen" d="M896 921.6h-819.2c-42.347 0-76.8-34.453-76.8-76.8v-512c0-42.349 34.453-76.8 76.8-76.8h384v-102.4h-179.2c-14.138 0-25.6-11.461-25.6-25.6s11.462-25.6 25.6-25.6h409.6c14.139 0 25.6 11.461 25.6 25.6s-11.461 25.6-25.6 25.6h-179.2v102.4h384c42.349 0 76.8 34.451 76.8 76.8v512c0 42.347-34.451 76.8-76.8 76.8zM921.6 332.8c0-14.115-11.485-25.6-25.6-25.6h-819.2c-14.115 0-25.6 11.485-25.6 25.6v512c0 14.115 11.485 25.6 25.6 25.6h819.2c14.115 0 25.6-11.485 25.6-25.6v-512z" />
<glyph unicode="&#xe7a5;" glyph-name="phone" d="M691.2 0h-409.6c-42.347 0-76.8 34.451-76.8 76.8v870.4c0 42.347 34.453 76.8 76.8 76.8h409.6c42.349 0 76.8-34.453 76.8-76.8v-870.4c0-42.349-34.451-76.8-76.8-76.8zM281.6 972.8c-14.115 0-25.6-11.485-25.6-25.6v-870.4c0-14.115 11.485-25.6 25.6-25.6h409.6c14.115 0 25.6 11.485 25.6 25.6v870.4c0 14.115-11.485 25.6-25.6 25.6h-409.6zM537.6 870.4h-102.4c-14.138 0-25.6 11.462-25.6 25.6s11.462 25.6 25.6 25.6h102.4c14.139 0 25.6-11.462 25.6-25.6s-11.461-25.6-25.6-25.6zM358.4 896c0-14.138-11.462-25.6-25.6-25.6s-25.6 11.462-25.6 25.6c0 14.138 11.462 25.6 25.6 25.6s25.6-11.462 25.6-25.6zM486.4 102.4c-42.347 0-76.8 34.451-76.8 76.8s34.453 76.8 76.8 76.8c42.349 0 76.8-34.451 76.8-76.8s-34.451-76.8-76.8-76.8zM486.4 204.8c-14.115 0-25.6-11.485-25.6-25.6s11.485-25.6 25.6-25.6 25.6 11.485 25.6 25.6-11.485 25.6-25.6 25.6z" />
<glyph unicode="&#xe7b9;" glyph-name="power" d="M281.592 0c-5.030 0-10.088 1.478-14.485 4.498-10.168 6.984-13.91 20.229-8.901 31.501l166.046 373.602h-245.053c-10.355 0-19.69 6.237-23.651 15.803s-1.771 20.576 5.55 27.899l512 512c8.725 8.725 22.427 9.984 32.595 3s13.909-20.227 8.899-31.499l-166.045-373.603h245.051c10.355 0 19.69-6.237 23.651-15.803 3.963-9.566 1.771-20.578-5.55-27.899l-512-512c-4.95-4.95-11.506-7.498-18.109-7.498zM241.003 460.8h222.64c8.666 0 16.742-4.384 21.466-11.65 4.722-7.267 5.448-16.429 1.928-24.347l-126.050-283.611 370.81 370.808h-222.642c-8.666 0-16.742 4.384-21.466 11.65-4.722 7.267-5.448 16.429-1.928 24.347l126.050 283.61-370.808-370.806z" />
<glyph unicode="&#xe7d6;" glyph-name="bubble" d="M25.6 51.2c-11.507 0-21.6 7.677-24.67 18.766s1.634 22.864 11.501 28.784c86.57 51.942 122.485 127.414 135.218 162.755-94.088 72.048-147.648 171.746-147.648 276.094 0 52.704 13.23 103.755 39.323 151.736 24.902 45.794 60.406 86.806 105.526 121.899 91.504 71.17 212.802 110.365 341.55 110.365s250.046-39.195 341.552-110.366c45.118-35.093 80.624-76.104 105.526-121.899 26.091-47.979 39.322-99.030 39.322-151.734 0-52.702-13.23-103.755-39.322-151.736-24.902-45.794-60.408-86.806-105.526-121.899-91.506-71.17-212.803-110.365-341.552-110.365-52.907 0-104.8 6.627-154.437 19.707-21.974-14.637-63.040-40.605-112.086-65.005-76.163-37.89-141.528-57.102-194.277-57.102zM486.4 870.4c-239.97 0-435.2-149.294-435.2-332.8 0-92.946 51.432-182.379 141.107-245.368 8.797-6.178 12.795-17.194 10.013-27.576-5.984-22.325-26.363-83.597-80.878-142.734 66.659 23.341 138.424 63.832 191.434 100.286 6.296 4.328 14.197 5.621 21.544 3.52 48.558-13.888 99.691-20.928 151.981-20.928 239.97 0 435.2 149.294 435.2 332.8s-195.23 332.8-435.2 332.8z" />
<glyph unicode="&#xe7d7;" glyph-name="bubbles" d="M998.432 102.4c-0.010 0.002-0.024 0.002-0.032 0-68.667 0-139.989 43.834-166.232 61.722-28.819-6.986-58.955-10.522-89.768-10.522-73.584 0-143.085 20.285-195.699 57.114-55.394 38.778-85.901 91.226-85.901 147.686s30.507 108.909 85.901 147.686c52.614 36.83 122.115 57.114 195.699 57.114s143.085-20.283 195.699-57.114c55.395-38.778 85.901-91.226 85.901-147.686 0-49.368-23.614-96.099-66.843-132.963 4.197-11.805 17.358-37.205 58.616-78.605 5.078-4.678 8.259-11.384 8.259-18.834 0-14.138-11.462-25.598-25.6-25.598zM837.254 217.501c5.52 0 10.962-1.786 15.461-5.195 0.499-0.376 34.571-25.83 76.976-43.093-27.834 40.69-27.155 63.877-24.605 73.629 1.462 5.59 4.771 10.52 9.39 13.99 37.611 28.254 58.323 64.326 58.323 101.568 0 39.27-22.752 76.824-64.061 105.741-44.090 30.862-103.163 47.859-166.339 47.859s-122.25-16.997-166.339-47.859c-41.309-28.917-64.061-66.47-64.061-105.741s22.752-76.824 64.061-105.741c44.090-30.862 103.163-47.859 166.339-47.859 30.451 0 60.048 3.955 87.966 11.757 2.267 0.632 4.587 0.944 6.888 0.944zM25.6 51.2c-11.507 0-21.6 7.677-24.67 18.766-3.072 11.090 1.634 22.864 11.501 28.784 86.57 51.942 122.485 127.414 135.218 162.755-94.088 72.048-147.648 171.746-147.648 276.094 0 52.704 13.23 103.755 39.323 151.736 24.902 45.794 60.406 86.806 105.526 121.899 91.504 71.17 212.802 110.365 341.55 110.365 116.659 0 229.429-32.992 317.536-92.898 88.816-60.387 146.979-143.942 163.776-235.272 2.557-13.906-6.642-27.251-20.547-29.808-13.902-2.55-27.251 6.64-29.81 20.547-14.301 77.757-64.805 149.565-142.21 202.194-79.702 54.192-182.248 84.037-288.746 84.037-239.97 0-435.2-149.294-435.2-332.8 0-92.946 51.432-182.379 141.107-245.368 8.797-6.178 12.795-17.194 10.013-27.576-5.984-22.325-26.363-83.597-80.878-142.734 66.659 23.341 138.424 63.832 191.434 100.286 6.296 4.328 14.197 5.621 21.544 3.52 48.558-13.888 99.691-20.928 151.981-20.928 14.138 0 25.6-11.461 25.6-25.6s-11.462-25.6-25.6-25.6c-52.907 0-104.8 6.627-154.437 19.707-21.974-14.637-63.040-40.603-112.086-65.005-76.163-37.89-141.528-57.102-194.277-57.102z" />
<glyph unicode="&#xe7da;" glyph-name="bubble-question" d="M25.6 51.2c-11.507 0-21.6 7.677-24.67 18.766s1.634 22.864 11.501 28.784c86.566 51.941 122.483 127.413 135.216 162.755-94.086 72.048-147.646 171.746-147.646 276.094 0 52.704 13.23 103.755 39.323 151.736 24.902 45.794 60.406 86.806 105.526 121.899 91.504 71.17 212.802 110.365 341.55 110.365s250.046-39.195 341.552-110.366c45.118-35.093 80.624-76.104 105.526-121.899 26.091-47.979 39.322-99.030 39.322-151.734 0-52.702-13.23-103.755-39.322-151.736-24.902-45.794-60.408-86.806-105.526-121.899-91.506-71.17-212.803-110.365-341.552-110.365-52.907 0-104.8 6.627-154.437 19.707-21.974-14.637-63.040-40.605-112.086-65.005-76.163-37.89-141.528-57.102-194.277-57.102zM486.4 870.4c-239.97 0-435.2-149.294-435.2-332.8 0-92.946 51.432-182.379 141.107-245.368 8.797-6.178 12.795-17.194 10.011-27.576-5.984-22.325-26.365-83.598-80.88-142.736 66.664 23.339 138.422 63.83 191.435 100.288 6.298 4.328 14.2 5.619 21.544 3.52 48.558-13.888 99.693-20.928 151.982-20.928 239.97 0 435.2 149.294 435.2 332.8s-195.23 332.8-435.2 332.8zM486.4 409.6c-14.138 0-25.6 11.461-25.6 25.6v102.4c0 14.138 11.462 25.6 25.6 25.6 42.349 0 76.8 34.453 76.8 76.8s-34.451 76.8-76.8 76.8c-42.347 0-76.8-34.453-76.8-76.8 0-14.138-11.462-25.6-25.6-25.6s-25.6 11.462-25.6 25.6c0 70.579 57.421 128 128 128s128-57.421 128-128c0-61.813-44.048-113.534-102.4-125.429v-79.371c0-14.139-11.462-25.6-25.6-25.6zM486.4 307.2c-6.736 0-13.344 2.736-18.096 7.504-4.768 4.752-7.504 11.36-7.504 18.096 0 6.752 2.736 13.344 7.504 18.098 4.752 4.766 11.36 7.502 18.096 7.502s13.344-2.736 18.096-7.502c4.768-4.754 7.504-11.362 7.504-18.098s-2.736-13.328-7.504-18.096c-4.752-4.768-11.36-7.504-18.096-7.504z" />
<glyph unicode="&#xe7e8;" glyph-name="heart-pulse" d="M486.4 51.2c-4.283 0-8.566 1.074-12.432 3.222-5.954 3.307-147.285 82.464-274.914 208.987-10.040 9.954-10.11 26.163-0.157 36.203s26.163 10.11 36.203 0.157c101.349-100.472 214.307-171.323 251.293-193.35 37 22.054 150.123 93.045 251.304 193.352 10.042 9.952 26.248 9.882 36.205-0.158 9.954-10.040 9.883-26.25-0.158-36.205-127.629-126.52-268.958-205.678-274.912-208.986-3.866-2.149-8.149-3.222-12.432-3.222zM65.478 460.784c-9.61 0-18.821 5.437-23.182 14.709-28.066 59.659-42.296 119.314-42.296 177.307 0 148.218 120.582 268.8 268.8 268.8 50.173 0 103.461-18.805 150.051-52.952 27.251-19.973 50.442-44.043 67.549-69.606 17.107 25.565 40.299 49.634 67.55 69.606 46.589 34.147 99.878 52.952 150.050 52.952 148.218 0 268.8-120.582 268.8-268.8 0-57.992-14.23-117.645-42.294-177.301-6.018-12.794-21.267-18.29-34.061-12.267-12.794 6.018-18.286 21.267-12.269 34.061 24.834 52.786 37.424 105.107 37.424 155.507 0 119.986-97.616 217.6-217.6 217.6-87.187 0-171.856-71.725-193.314-136.096-3.485-10.453-13.267-17.504-24.286-17.504s-20.802 7.051-24.286 17.504c-21.456 64.371-106.125 136.096-193.314 136.096-119.986 0-217.6-97.614-217.6-217.6 0-50.4 12.592-102.723 37.426-155.512 6.019-12.794 0.526-28.043-12.267-34.061-3.522-1.659-7.23-2.443-10.88-2.443zM538.346 255.976c-0.232 0-0.456 0.002-0.678 0.006-10.35 0.218-29.122 5.598-38.552 39.194l-62.291 221.915-41.328-167.894c-8.106-32.933-26.902-39.813-37.387-40.982-10.483-1.173-30.334 1.397-45.504 31.733l-31.005 62.010c-1.475 2.952-2.85 4.834-3.893 6-0.171-0.229-0.355-0.483-0.546-0.765-18.939-27.816-61.053-48.792-97.962-48.792h-51.2c-14.138 0-25.6 11.461-25.6 25.6s11.462 25.6 25.6 25.6h51.2c21.554 0 47.152 13.942 55.638 26.408 11.397 16.739 28.026 25.638 45.629 24.48 19.142-1.286 36.246-14.274 46.928-35.634l22.781-45.562 47.93 194.71c8.069 32.784 24.658 39.907 37.15 40.109 12.512 0.24 29.302-6.379 38.43-38.888l65.763-234.286 60.323 184.738c10.504 32.168 29.779 37.707 40.334 38.144 10.542 0.435 30.224-3.482 43.357-34.672l37.062-88.026c6.946-16.496 29.573-31.522 47.474-31.522h76.8c14.139 0 25.6-11.461 25.6-25.6s-11.461-25.6-25.6-25.6h-76.8c-38.24 0-79.822 27.608-94.662 62.853l-30.301 71.968-65.208-199.699c-10.598-32.454-29-37.546-39.483-37.546z" />
<glyph unicode="&#xe7f8;" glyph-name="pie-chart" d="M435.2 0c-116.246 0-225.534 45.269-307.733 127.467s-127.467 191.488-127.467 307.733c0 116.246 45.269 225.534 127.467 307.733s191.486 127.467 307.733 127.467c14.138 0 25.6-11.462 25.6-25.6v-384h384c14.139 0 25.6-11.461 25.6-25.6 0-116.245-45.269-225.534-127.467-307.733s-191.488-127.467-307.733-127.467zM409.6 818.357c-199.842-13.226-358.4-180.026-358.4-383.157 0-211.739 172.262-384 384-384 203.131 0 369.931 158.558 383.157 358.4h-383.157c-14.138 0-25.6 11.461-25.6 25.6v383.157zM947.2 512h-409.6c-14.139 0-25.6 11.462-25.6 25.6v409.6c0 14.138 11.461 25.6 25.6 25.6 116.245 0 225.534-45.269 307.733-127.467s127.467-191.486 127.467-307.733c0-14.138-11.461-25.6-25.6-25.6zM563.2 563.2h357.557c-12.664 191.374-166.184 344.891-357.557 357.557v-357.557z" />
<glyph unicode="&#xe7fa;" glyph-name="graph" d="M998.4 0h-972.8c-14.138 0-25.6 11.461-25.6 25.6v972.8c0 11.872 8.163 22.187 19.718 24.915 11.554 2.733 23.469-2.848 28.779-13.467l51.2-102.4c6.323-12.645 1.197-28.022-11.45-34.346-12.643-6.32-28.022-1.197-34.346 11.45l-2.702 5.405v-838.757h838.757l-5.405 2.702c-12.645 6.322-17.771 21.699-11.448 34.346 6.322 12.645 21.699 17.771 34.346 11.448l102.4-51.2c10.619-5.309 16.194-17.224 13.467-28.778-2.73-11.555-13.043-19.718-24.917-19.718zM870.4 793.6c0 42.347-34.451 76.8-76.8 76.8s-76.8-34.453-76.8-76.8c0-24.576 11.618-46.477 29.634-60.544l-107.832-323.491c-14.336-0.258-27.722-4.453-39.123-11.565l-142.958 114.368c2.762 7.909 4.28 16.394 4.28 25.232 0 42.347-34.453 76.8-76.8 76.8s-76.8-34.453-76.8-76.8c0-20.669 8.221-39.442 21.547-53.261l-88.872-177.746c-3.107 0.384-6.266 0.606-9.475 0.606-42.347 0-76.8-34.451-76.8-76.8s34.453-76.8 76.8-76.8 76.8 34.451 76.8 76.8c0 20.669-8.222 39.442-21.547 53.261l88.872 177.746c3.107-0.384 6.266-0.606 9.475-0.606 14.866 0 28.749 4.258 40.52 11.6l142.958-114.366c-2.76-7.91-4.278-16.397-4.278-25.234 0-42.349 34.451-76.8 76.8-76.8s76.8 34.451 76.8 76.8c0 24.576-11.618 46.478-29.634 60.546l107.832 323.49c41.702 0.75 75.402 34.885 75.402 76.765zM793.6 819.2c14.115 0 25.6-11.485 25.6-25.6s-11.485-25.6-25.6-25.6-25.6 11.485-25.6 25.6 11.485 25.6 25.6 25.6zM384 563.2c14.115 0 25.6-11.485 25.6-25.6s-11.485-25.6-25.6-25.6-25.6 11.485-25.6 25.6 11.485 25.6 25.6 25.6zM230.4 204.8c-14.115 0-25.6 11.485-25.6 25.6s11.485 25.6 25.6 25.6 25.6-11.485 25.6-25.6-11.485-25.6-25.6-25.6zM640 307.2c-14.115 0-25.6 11.485-25.6 25.6s11.485 25.6 25.6 25.6 25.6-11.485 25.6-25.6-11.485-25.6-25.6-25.6z" />
<glyph unicode="&#xe7fb;" glyph-name="chart-growth" d="M179.2 0h-153.6c-14.138 0-25.6 11.461-25.6 25.6v358.4c0 14.139 11.462 25.6 25.6 25.6h153.6c14.138 0 25.6-11.461 25.6-25.6v-358.4c0-14.139-11.462-25.6-25.6-25.6zM51.2 51.2h102.4v307.2h-102.4v-307.2zM435.2 0h-153.6c-14.138 0-25.6 11.461-25.6 25.6v512c0 14.138 11.462 25.6 25.6 25.6h153.6c14.138 0 25.6-11.462 25.6-25.6v-512c0-14.139-11.462-25.6-25.6-25.6zM307.2 51.2h102.4v460.8h-102.4v-460.8zM691.2 0h-153.6c-14.139 0-25.6 11.461-25.6 25.6v460.8c0 14.139 11.461 25.6 25.6 25.6h153.6c14.139 0 25.6-11.461 25.6-25.6v-460.8c0-14.139-11.461-25.6-25.6-25.6zM563.2 51.2h102.4v409.6h-102.4v-409.6zM947.2 0h-153.6c-14.139 0-25.6 11.461-25.6 25.6v665.6c0 14.138 11.461 25.6 25.6 25.6h153.6c14.139 0 25.6-11.462 25.6-25.6v-665.6c0-14.139-11.461-25.6-25.6-25.6zM819.2 51.2h102.4v614.4h-102.4v-614.4zM914.101 965.301c-6.856 6.858-17.002 9.253-26.197 6.184l-153.6-51.2c-13.413-4.47-20.662-18.968-16.19-32.381 4.47-13.413 18.973-20.662 32.381-16.19l50.723 16.907-219.917-219.915c-10.922-10.922-31.341-12.374-43.701-3.106l-122.88 92.16c-31.966 23.974-81.232 22.934-112.158-2.368l-241.973-197.979c-10.942-8.954-12.555-25.082-3.602-36.024 5.061-6.186 12.414-9.39 19.829-9.39 5.701 0 11.438 1.896 16.197 5.787l241.973 197.978c12.614 10.322 35.978 10.813 49.016 1.035l122.88-92.16c32.933-24.699 81.522-21.242 110.624 7.861l219.917 219.917-16.907-50.723c-4.472-13.413 2.778-27.91 16.19-32.381 2.686-0.896 5.416-1.322 8.099-1.322 10.718 0 20.707 6.784 24.283 17.512l51.2 153.6c3.066 9.202 0.67 19.342-6.187 26.198z" />
<glyph unicode="&#xe7fc;" glyph-name="chart-bars" d="M896 0h-819.2c-42.347 0-76.8 34.451-76.8 76.8v819.2c0 42.347 34.453 76.8 76.8 76.8h819.2c42.349 0 76.8-34.453 76.8-76.8v-819.2c0-42.349-34.451-76.8-76.8-76.8zM76.8 921.6c-14.115 0-25.6-11.485-25.6-25.6v-819.2c0-14.115 11.485-25.6 25.6-25.6h819.2c14.115 0 25.6 11.485 25.6 25.6v819.2c0 14.115-11.485 25.6-25.6 25.6h-819.2zM332.8 153.6h-102.4c-14.138 0-25.6 11.461-25.6 25.6v460.8c0 14.138 11.462 25.6 25.6 25.6h102.4c14.138 0 25.6-11.462 25.6-25.6v-460.8c0-14.139-11.462-25.6-25.6-25.6zM256 204.8h51.2v409.6h-51.2v-409.6zM537.6 153.6h-102.4c-14.138 0-25.6 11.461-25.6 25.6v614.4c0 14.138 11.462 25.6 25.6 25.6h102.4c14.139 0 25.6-11.462 25.6-25.6v-614.4c0-14.139-11.461-25.6-25.6-25.6zM460.8 204.8h51.2v563.2h-51.2v-563.2zM742.4 153.6h-102.4c-14.139 0-25.6 11.461-25.6 25.6v256c0 14.139 11.461 25.6 25.6 25.6h102.4c14.139 0 25.6-11.461 25.6-25.6v-256c0-14.139-11.461-25.6-25.6-25.6zM665.6 204.8h51.2v204.8h-51.2v-204.8z" />
<glyph unicode="&#xe7ff;" glyph-name="gift" d="M947.2 768h-153.67c16.107 21.408 25.67 48.006 25.67 76.8 0 70.579-57.421 128-128 128-71.181 0-130.869-56.381-160.112-89.987-17.707-20.35-32.954-42.136-44.686-63.208-11.733 21.070-26.981 42.858-44.688 63.208-29.245 33.606-88.931 89.987-160.114 89.987-70.579 0-128-57.421-128-128 0-28.794 9.563-55.392 25.669-76.8h-153.669c-14.138 0-25.6-11.462-25.6-25.6v-153.6c0-14.138 11.462-25.6 25.6-25.6h25.6v-486.4c0-42.349 34.453-76.8 76.8-76.8h716.8c42.349 0 76.8 34.451 76.8 76.8v486.4h25.6c14.139 0 25.6 11.462 25.6 25.6v153.6c0 14.138-11.461 25.6-25.6 25.6zM569.712 849.203c40.035 46.010 84.317 72.397 121.488 72.397 42.349 0 76.8-34.453 76.8-76.8s-34.451-76.8-76.8-76.8h-172.946c8.854 22.621 26.758 52.818 51.458 81.203zM563.2 51.2h-153.6v665.6h153.6v-665.6zM204.8 844.8c0 42.347 34.453 76.8 76.8 76.8 37.173 0 81.453-26.387 121.488-72.397 24.699-28.386 42.603-58.582 51.458-81.203h-172.946c-42.347 0-76.8 34.453-76.8 76.8zM51.2 716.8h307.2v-102.4h-307.2v102.4zM102.4 76.8v486.4h256v-512h-230.4c-14.115 0-25.6 11.485-25.6 25.6zM870.4 76.8c0-14.115-11.485-25.6-25.6-25.6h-230.4v512h256v-486.4zM921.6 614.4h-307.2v102.4h307.2v-102.4z" />
<glyph unicode="&#xe806;" glyph-name="diamond" d="M486.4 102.4c-7.258 0-14.173 3.080-19.029 8.475l-460.8 512c-8.182 9.091-8.79 22.701-1.451 32.486l153.6 204.8c4.834 6.446 12.422 10.24 20.48 10.24h614.4c8.058 0 15.645-3.794 20.48-10.24l153.6-204.8c7.339-9.786 6.731-23.395-1.451-32.486l-460.8-512c-4.856-5.395-11.771-8.475-19.029-8.475zM58.709 641.48l427.691-475.211 427.691 475.211-133.291 177.72h-588.8l-133.291-177.72z" />
<glyph unicode="&#xe809;" glyph-name="diamond4" d="M486.4 102.4c-7.258 0-14.173 3.080-19.029 8.475l-460.8 512c-8.182 9.091-8.79 22.701-1.451 32.486l153.6 204.8c4.834 6.446 12.422 10.24 20.48 10.24h307.2c14.138 0 25.6-11.462 25.6-25.6s-11.462-25.6-25.6-25.6h-294.4l-133.291-177.722 427.691-475.211 427.691 475.211-133.291 177.72h-89.6c-14.139 0-25.6 11.462-25.6 25.6s11.461 25.6 25.6 25.6h102.4c8.058 0 15.645-3.794 20.48-10.24l153.6-204.8c7.339-9.786 6.731-23.395-1.451-32.486l-460.8-512c-4.856-5.394-11.771-8.474-19.029-8.474zM588.8 512c-14.139 0-25.6 11.461-25.6 25.6 0 70.579-57.421 128-128 128-14.138 0-25.6 11.462-25.6 25.6s11.462 25.6 25.6 25.6c70.579 0 128 57.421 128 128 0 14.138 11.461 25.6 25.6 25.6s25.6-11.462 25.6-25.6c0-70.579 57.421-128 128-128 14.139 0 25.6-11.462 25.6-25.6s-11.461-25.6-25.6-25.6c-70.579 0-128-57.421-128-128 0-14.139-11.461-25.6-25.6-25.6zM527.424 691.2c25.112-15.136 46.24-36.264 61.376-61.376 15.136 25.112 36.264 46.24 61.376 61.376-25.112 15.136-46.24 36.264-61.376 61.376-15.136-25.112-36.264-46.24-61.376-61.376z" />
<glyph unicode="&#xe837;" glyph-name="rocket" d="M691.2 563.2c-70.579 0-128 57.421-128 128s57.421 128 128 128 128-57.421 128-128-57.421-128-128-128zM691.2 768c-42.347 0-76.8-34.453-76.8-76.8s34.453-76.8 76.8-76.8 76.8 34.453 76.8 76.8-34.453 76.8-76.8 76.8zM25.603 0c-6.675 0-13.219 2.613-18.106 7.499-7.034 7.034-9.355 17.502-5.957 26.85 78.781 216.648 161.613 326.499 246.195 326.499 27.883 0 53.979-11.96 77.566-35.546 37.283-37.283 38.611-74.394 33.162-98.96-17.125-77.187-126.171-152.822-324.115-224.802-2.853-1.038-5.813-1.541-8.746-1.541zM247.736 309.646c-25.354 0-55.19-22.214-86.282-64.237-30.578-41.33-61.274-100.205-91.525-175.477 68.352 27.478 123.302 55.379 163.806 83.205 54.648 37.542 70.808 66.562 74.742 84.294 3.944 17.779-2.395 34.682-19.382 51.667-13.826 13.826-27.354 20.547-41.36 20.547zM998.4 1024c-132.848 0-251.256-22.534-351.939-66.981-82.997-36.638-154.075-88.075-211.258-152.882-10.674-12.098-20.552-24.334-29.691-36.586-44.142-2.942-89.275-20.47-134.362-52.221-38.13-26.851-76.459-64.014-113.923-110.458-62.965-78.054-101.706-154.987-103.325-158.226-5.605-11.211-2.25-24.814 7.904-32.166 4.501-3.258 9.758-4.856 14.992-4.856 6.573 0 13.109 2.52 18.064 7.434 0.243 0.24 24.714 24.299 66.469 47.926 34.41 19.474 87.461 42.336 151.613 46.384 16.219-41.541 62.662-91.181 84.954-113.47 22.291-22.291 71.931-68.734 113.472-84.955-4.046-64.152-26.91-117.202-46.382-151.611-23.629-41.757-47.686-66.227-47.89-66.432-8.878-8.878-10.006-22.885-2.666-33.070 4.952-6.87 12.77-10.634 20.782-10.634 3.867 0 7.779 0.877 11.434 2.704 3.237 1.619 80.17 40.36 158.226 103.325 46.443 37.464 83.606 75.794 110.458 113.922 31.75 45.088 49.278 90.221 52.221 134.363 12.251 9.139 24.49 19.019 36.586 29.693 64.806 57.181 116.243 128.259 152.883 211.258 44.443 100.682 66.979 219.091 66.979 351.939v25.6h-25.6zM159.102 521.813c48.797 70.8 123.384 158.595 207.446 186.232-33.222-58.203-50.422-111.691-56.611-145.555-59.323-3.626-110.467-20.89-150.835-40.677zM521.87 159.219c19.762 40.35 36.995 91.453 40.619 150.718 33.859 6.187 87.336 23.384 145.528 56.597-27.658-83.92-115.381-158.49-186.147-207.315zM770.262 473.595c-106.48-93.952-216.794-115.195-232.662-115.195-0.102 0-10.581 0.23-38.867 20.136-19.728 13.883-42.682 33.618-64.63 55.566-21.95 21.95-41.683 44.902-55.566 64.632-19.906 28.285-20.136 38.763-20.136 38.866 0 15.869 21.243 126.182 115.197 232.662 112.416 127.406 284.533 197.059 498.894 202.227-5.17-214.358-74.822-386.477-202.229-498.894z" />
<glyph unicode="&#xe84a;" glyph-name="car" d="M1024.032 229.891c0 0.579-0.019 1.154-0.056 1.722-0.326 13.227-4.816 93.83-65.326 124.085-8.755 4.376-26.88 13.438-198.787 26.826-6.259 14.325-16.766 37.403-29.51 61.597-39.877 75.696-65.026 93.038-80.474 99.499-54.118 22.632-217.184 27.742-323.285 1.218-66.392-16.598-125.877-55.715-172.024-113.122-26.256-32.662-41.306-62.624-47.334-75.933-15.182-11.966-28.906-25.914-41.133-41.83-43.864-57.091-66.102-136.88-66.102-237.152 0-6.789 2.698-13.301 7.499-18.102s11.314-7.498 18.102-7.498l53.014 0.003c12.738 0.002 23.536 9.366 25.341 21.974 1.446 10.106 3.914 19.862 7.234 29.206 21.136-59.59 78.066-102.387 144.81-102.387s123.672 42.797 144.81 102.387c3.32-9.344 5.787-19.101 7.234-29.206 1.803-12.61 12.603-21.974 25.342-21.974l310.83-0.003c12.738 0 23.539 9.366 25.342 21.974 0.874 6.106 2.146 12.077 3.717 17.917 15.918-52.643 64.858-91.091 122.627-91.091 70.634 0 128.098 57.464 128.098 128.098 0 28.392-9.285 54.824-25.117 76.218 13.928 0.242 25.149 11.587 25.149 25.576zM339.008 495.165c98.011 24.506 250.766 18.091 291.115 1.218 1.941-0.811 19.96-9.83 54.75-75.79 6.222-11.797 11.925-23.427 16.808-33.794-30.974 2.155-65.784 4.408-104.949 6.758-158.4 9.502-312.53 15.96-314.067 16.024-0.355 0.011-0.71 0.019-1.066 0.019-31.814 0-61.141-3.683-87.925-10.984 29.829 37.389 76.906 79.442 145.333 96.549zM256 51.197c-56.464 0-102.4 45.936-102.4 102.4 0 4.187 0.285 8.365 0.786 12.499 27.326 24.133 63.102 38.704 101.614 38.704 38.514 0 74.288-14.571 101.614-38.701 0.501-4.138 0.786-8.314 0.786-12.501 0-56.466-45.936-102.402-102.4-102.402zM723.266 102.4l-268.933 0.003c-9.222 35.754-28.077 68.47-54.542 94.581-0.269 0.275-0.544 0.544-0.824 0.806-2.675 2.611-5.402 5.178-8.23 7.65-37.296 32.603-85.146 50.56-134.736 50.56s-97.44-17.957-134.736-50.56c-2.205-1.928-4.354-3.909-6.467-5.922-1.472-1.157-2.818-2.472-4.013-3.931-25.725-25.875-44.061-58.072-53.12-93.186h-5.915c5.352 122.213 51.846 255.736 229.323 255.998 10.104-0.426 157.84-6.696 310.195-15.811 290.866-17.4 337.301-29.462 344.485-32.686 20.37-10.186 29.557-34.678 33.691-53.902l-47.843-0.002c-5.12 0-10.221-0.202-15.294-0.581-0.307-0.021-0.614-0.042-0.918-0.074-33.333-2.642-65.418-13.387-93.501-31.21-0.29-0.174-0.571-0.363-0.856-0.55-8.446-5.419-16.531-11.47-24.166-18.146-31.254-27.322-53.354-63.32-63.598-103.038zM895.902 51.2c-42.402 0-76.899 34.496-76.899 76.898 0 20.106 7.605 38.894 21.467 53.28 19.88 12.44 42.675 20.482 66.902 22.755 37.462-5.582 65.427-37.843 65.427-76.035 0-42.402-34.496-76.898-76.898-76.898z" />
<glyph unicode="&#xe857;" glyph-name="truck" d="M1013.462 336.827l-0.213 1.062c-0.010 0.042-0.018 0.086-0.026 0.13l-20.451 102.246c-0.011 0.056-0.022 0.114-0.034 0.171l-10.395 51.976c-7.938 39.694-45.864 70.787-86.344 70.787h-204.8c-8.974 0-17.587-1.562-25.6-4.403v30.003c0 42.347-34.453 76.8-76.8 76.8h-512c-42.347 0-76.8-34.453-76.8-76.8v-409.6c0-42.347 34.453-76.8 76.8-76.8h76.8c0-56.464 45.936-102.4 102.4-102.4s102.4 45.936 102.4 102.4h260.403c10.566-29.797 39.024-51.2 72.397-51.2h39.376c17.733-30.576 50.805-51.2 88.624-51.2s70.891 20.624 88.624 51.2h39.376c42.349 0 76.8 34.451 76.8 76.8v102.4c0 29.627-4.726 77.368-10.538 106.427zM956.933 358.4h-137.733v51.2h127.493l10.24-51.2zM256 51.2c-28.232 0-51.2 22.968-51.2 51.2s22.968 51.2 51.2 51.2 51.2-22.968 51.2-51.2-22.968-51.2-51.2-51.2zM344.624 153.6c-17.733 30.576-50.805 51.2-88.624 51.2s-70.89-20.624-88.624-51.2h-90.576c-14.115 0-25.6 11.485-25.6 25.6v409.6c0 14.115 11.485 25.6 25.6 25.6h512c14.115 0 25.6-11.485 25.6-25.6v-435.2h-269.776zM819.2 51.2c-28.232 0-51.2 22.968-51.2 51.2s22.968 51.2 51.2 51.2 51.2-22.968 51.2-51.2-22.968-51.2-51.2-51.2zM947.2 102.4h-25.6c0 56.464-45.936 102.4-102.4 102.4s-102.4-45.936-102.4-102.4h-25.6c-14.115 0-25.6 11.485-25.6 25.6v358.4c0 14.115 11.485 25.6 25.6 25.6h204.8c16.096 0 32.981-13.843 36.138-29.627l4.315-21.573h-142.853c-14.139 0-25.6-11.462-25.6-25.6v-102.4c0-14.139 11.461-25.6 25.6-25.6h172.95c2.306-16.010 4.218-34.549 5.298-51.2h-24.648c-14.139 0-25.6-11.461-25.6-25.6s11.461-25.6 25.6-25.6h25.6v-76.8c0-14.115-11.485-25.6-25.6-25.6z" />
<glyph unicode="&#xe880;" glyph-name="icons2" d="M179.2 51.2h-102.4c-42.347 0-76.8 34.453-76.8 76.8v102.4c0 42.347 34.453 76.8 76.8 76.8h102.4c42.347 0 76.8-34.453 76.8-76.8v-102.4c0-42.347-34.453-76.8-76.8-76.8zM76.8 256c-14.115 0-25.6-11.485-25.6-25.6v-102.4c0-14.115 11.485-25.6 25.6-25.6h102.4c14.115 0 25.6 11.485 25.6 25.6v102.4c0 14.115-11.485 25.6-25.6 25.6h-102.4zM537.6 51.2h-102.4c-42.347 0-76.8 34.453-76.8 76.8v102.4c0 42.347 34.453 76.8 76.8 76.8h102.4c42.347 0 76.8-34.453 76.8-76.8v-102.4c0-42.347-34.453-76.8-76.8-76.8zM435.2 256c-14.115 0-25.6-11.485-25.6-25.6v-102.4c0-14.115 11.485-25.6 25.6-25.6h102.4c14.115 0 25.6 11.485 25.6 25.6v102.4c0 14.115-11.485 25.6-25.6 25.6h-102.4zM896 51.2h-102.4c-42.347 0-76.8 34.453-76.8 76.8v102.4c0 42.347 34.453 76.8 76.8 76.8h102.4c42.347 0 76.8-34.453 76.8-76.8v-102.4c0-42.347-34.453-76.8-76.8-76.8zM793.6 256c-14.115 0-25.6-11.485-25.6-25.6v-102.4c0-14.115 11.485-25.6 25.6-25.6h102.4c14.115 0 25.6 11.485 25.6 25.6v102.4c0 14.115-11.485 25.6-25.6 25.6h-102.4zM179.2 409.6h-102.4c-42.347 0-76.8 34.453-76.8 76.8v102.4c0 42.347 34.453 76.8 76.8 76.8h102.4c42.347 0 76.8-34.453 76.8-76.8v-102.4c0-42.347-34.453-76.8-76.8-76.8zM76.8 614.4c-14.115 0-25.6-11.485-25.6-25.6v-102.4c0-14.115 11.485-25.6 25.6-25.6h102.4c14.115 0 25.6 11.485 25.6 25.6v102.4c0 14.115-11.485 25.6-25.6 25.6h-102.4zM537.6 409.6h-102.4c-42.347 0-76.8 34.453-76.8 76.8v102.4c0 42.347 34.453 76.8 76.8 76.8h102.4c42.347 0 76.8-34.453 76.8-76.8v-102.4c0-42.347-34.453-76.8-76.8-76.8zM435.2 614.4c-14.115 0-25.6-11.485-25.6-25.6v-102.4c0-14.115 11.485-25.6 25.6-25.6h102.4c14.115 0 25.6 11.485 25.6 25.6v102.4c0 14.115-11.485 25.6-25.6 25.6h-102.4zM896 409.6h-102.4c-42.347 0-76.8 34.453-76.8 76.8v102.4c0 42.347 34.453 76.8 76.8 76.8h102.4c42.347 0 76.8-34.453 76.8-76.8v-102.4c0-42.347-34.453-76.8-76.8-76.8zM793.6 614.4c-14.115 0-25.6-11.485-25.6-25.6v-102.4c0-14.115 11.485-25.6 25.6-25.6h102.4c14.115 0 25.6 11.485 25.6 25.6v102.4c0 14.115-11.485 25.6-25.6 25.6h-102.4zM179.2 768h-102.4c-42.347 0-76.8 34.453-76.8 76.8v102.4c0 42.347 34.453 76.8 76.8 76.8h102.4c42.347 0 76.8-34.453 76.8-76.8v-102.4c0-42.347-34.453-76.8-76.8-76.8zM76.8 972.8c-14.115 0-25.6-11.485-25.6-25.6v-102.4c0-14.115 11.485-25.6 25.6-25.6h102.4c14.115 0 25.6 11.485 25.6 25.6v102.4c0 14.115-11.485 25.6-25.6 25.6h-102.4zM537.6 768h-102.4c-42.347 0-76.8 34.453-76.8 76.8v102.4c0 42.347 34.453 76.8 76.8 76.8h102.4c42.347 0 76.8-34.453 76.8-76.8v-102.4c0-42.347-34.453-76.8-76.8-76.8zM435.2 972.8c-14.115 0-25.6-11.485-25.6-25.6v-102.4c0-14.115 11.485-25.6 25.6-25.6h102.4c14.115 0 25.6 11.485 25.6 25.6v102.4c0 14.115-11.485 25.6-25.6 25.6h-102.4zM896 768h-102.4c-42.347 0-76.8 34.453-76.8 76.8v102.4c0 42.347 34.453 76.8 76.8 76.8h102.4c42.347 0 76.8-34.453 76.8-76.8v-102.4c0-42.347-34.453-76.8-76.8-76.8zM793.6 972.8c-14.115 0-25.6-11.485-25.6-25.6v-102.4c0-14.115 11.485-25.6 25.6-25.6h102.4c14.115 0 25.6 11.485 25.6 25.6v102.4c0 14.115-11.485 25.6-25.6 25.6h-102.4z" />
<glyph unicode="&#xe8aa;" glyph-name="alarm" d="M860.171 250.85c-58.576 44-92.171 111.194-92.171 184.35v153.6c0 128.661-86.733 237.442-204.798 270.954l-0.002 36.246c0 42.347-34.451 76.8-76.8 76.8-42.347 0-76.8-34.453-76.8-76.8v-36.245c-118.067-33.512-204.8-142.294-204.8-270.955v-153.6c0-73.157-33.595-140.349-92.171-184.35-8.808-6.616-12.395-18.125-8.907-28.573 3.486-10.448 13.267-17.496 24.283-17.496h232.982c-1.709-8.384-2.587-16.955-2.587-25.581 0-70.579 57.421-128 128-128s128 57.421 128 128c0 8.626-0.878 17.197-2.584 25.581h232.981c11.016 0 20.795 7.046 24.283 17.496s-0.101 21.957-8.909 28.573zM460.8 896c0 14.115 11.485 25.6 25.6 25.6s25.6-11.485 25.6-25.6v-26.774c-8.435 0.763-16.97 1.176-25.6 1.176s-17.166-0.413-25.6-1.176v26.774zM563.2 179.2c0-42.347-34.453-76.8-76.8-76.8s-76.8 34.453-76.8 76.8c0 8.76 1.515 17.411 4.394 25.581h144.813c2.878-8.168 4.394-16.821 4.394-25.581zM191.571 255.981c13.075 15.826 24.437 33.051 33.744 51.27 20.362 39.858 30.685 82.906 30.685 127.949v153.6c0 127.043 103.357 230.4 230.4 230.4s230.4-103.357 230.4-230.4v-153.6c0-45.043 10.323-88.091 30.685-127.949 9.307-18.219 20.669-35.445 33.744-51.27h-589.658z" />
<glyph unicode="&#xe8ad;" glyph-name="alarm-ringing" d="M860.171 250.85c-58.576 44-92.171 111.194-92.171 184.35v153.6c0 128.661-86.733 237.442-204.798 270.954l-0.002 36.246c0 42.347-34.451 76.8-76.8 76.8-42.347 0-76.8-34.453-76.8-76.8v-36.245c-118.067-33.512-204.8-142.294-204.8-270.955v-153.6c0-73.157-33.595-140.349-92.171-184.35-8.808-6.616-12.395-18.125-8.907-28.573 3.486-10.448 13.267-17.496 24.283-17.496h232.982c-1.709-8.384-2.587-16.955-2.587-25.581 0-70.579 57.421-128 128-128s128 57.421 128 128c0 8.626-0.878 17.197-2.584 25.581h232.981c11.016 0 20.795 7.046 24.283 17.496s-0.101 21.957-8.909 28.573zM460.8 896c0 14.115 11.485 25.6 25.6 25.6s25.6-11.485 25.6-25.6v-26.774c-8.435 0.763-16.97 1.176-25.6 1.176s-17.166-0.413-25.6-1.176v26.774zM563.2 179.2c0-42.347-34.453-76.8-76.8-76.8s-76.8 34.453-76.8 76.8c0 8.76 1.515 17.411 4.394 25.581h144.813c2.878-8.168 4.394-16.821 4.394-25.581zM191.571 255.981c13.075 15.826 24.437 33.051 33.744 51.27 20.362 39.858 30.685 82.906 30.685 127.949v153.6c0 127.043 103.357 230.4 230.4 230.4s230.4-103.357 230.4-230.4v-153.6c0-45.043 10.323-88.091 30.685-127.949 9.307-18.219 20.669-35.445 33.744-51.27h-589.658zM883.088 665.592c-11.402 0-21.8 7.672-24.773 19.226-19.203 74.614-60.12 141.131-118.326 192.357-10.614 9.341-11.645 25.517-2.304 36.131 9.342 10.611 25.518 11.643 36.13 2.304 65.947-58.037 112.312-133.432 134.086-218.030 3.523-13.693-4.718-27.648-18.411-31.173-2.142-0.55-4.29-0.814-6.402-0.814zM947.229 786.618c-9.496 0-18.618 5.304-23.045 14.419-13.566 27.923-29.922 54.701-48.618 79.59-8.493 11.304-6.211 27.354 5.094 35.843 11.307 8.493 27.355 6.21 35.843-5.094 20.661-27.506 38.739-57.102 53.733-87.968 6.178-12.717 0.877-28.034-11.84-34.213-3.603-1.749-7.416-2.578-11.168-2.578zM89.712 665.592c-2.112 0-4.259 0.264-6.398 0.814-13.693 3.525-21.936 17.48-18.411 31.173 21.773 84.6 68.139 159.994 134.085 218.030 10.616 9.341 26.79 8.307 36.131-2.304 9.341-10.614 8.309-26.79-2.306-36.131-58.206-51.226-99.123-117.741-118.326-192.357-2.974-11.552-13.373-19.226-24.774-19.226zM25.571 786.618c-3.754 0-7.565 0.829-11.166 2.579-12.717 6.178-18.019 21.496-11.84 34.213 14.994 30.866 33.072 60.462 53.733 87.968 8.491 11.302 24.539 13.584 35.843 5.094s13.586-24.539 5.094-35.843c-18.696-24.89-35.053-51.667-48.618-79.59-4.427-9.115-13.55-14.421-23.046-14.421z" />
<glyph unicode="&#xe8b0;" glyph-name="volume-high" d="M699.050 262.107c-7.438 0-14.816 3.227-19.875 9.446-8.922 10.968-7.262 27.093 3.704 36.014 54.096 44.003 85.122 109.187 85.122 178.832s-31.026 134.827-85.12 178.834c-10.968 8.922-12.627 25.046-3.704 36.014s25.046 12.626 36.014 3.702c66.099-53.771 104.010-133.43 104.010-218.55 0-85.122-37.91-164.779-104.011-218.55-4.749-3.862-10.462-5.742-16.139-5.742zM795.915 142.893c-7.438 0-14.814 3.227-19.875 9.446-8.922 10.966-7.264 27.091 3.704 36.014 90.152 73.338 141.856 181.971 141.856 298.046 0 116.077-51.704 224.71-141.854 298.046-10.968 8.922-12.627 25.046-3.704 36.013 8.92 10.968 25.045 12.627 36.014 3.704 102.155-83.101 160.744-206.211 160.744-337.763 0-131.55-58.589-254.661-160.746-337.766-4.747-3.861-10.462-5.741-16.139-5.741zM602.19 381.323c-7.438 0-14.814 3.227-19.875 9.446-8.922 10.966-7.264 27.093 3.704 36.014 18.037 14.672 28.381 36.4 28.381 59.616 0 23.218-10.346 44.949-28.382 59.621-10.966 8.922-12.627 25.046-3.704 36.014s25.045 12.626 36.014 3.704c30.040-24.44 47.272-60.645 47.272-99.339 0-38.691-17.23-74.898-47.27-99.334-4.747-3.861-10.462-5.742-16.139-5.742zM417.291 859.784c-12.64 0-25.318-5.33-37.682-15.838l-209.819-178.346h-92.99c-42.347 0-76.8-34.453-76.8-76.8v-204.8c0-42.349 34.453-76.8 76.8-76.8h92.989l209.821-178.346c12.363-10.509 25.040-15.838 37.68-15.838 0 0 0 0 0.002 0 13.931 0 26.429 6.762 34.288 18.55 6.118 9.178 9.221 20.898 9.221 34.834v640c0 36.877-21.853 53.384-43.509 53.384zM51.2 384v204.8c0 14.115 11.485 25.6 25.6 25.6h76.8v-256h-76.8c-14.115 0-25.6 11.485-25.6 25.6zM409.6 170.558l-204.8 174.080v283.523l204.8 174.078v-631.682z" />
<glyph unicode="&#xe8b1;" glyph-name="volume-medium" d="M699.050 262.107c-7.438 0-14.816 3.227-19.875 9.446-8.922 10.968-7.262 27.093 3.704 36.014 54.096 44.003 85.122 109.187 85.122 178.832s-31.026 134.827-85.12 178.834c-10.968 8.922-12.627 25.046-3.704 36.014s25.046 12.626 36.014 3.702c66.099-53.771 104.010-133.43 104.010-218.55 0-85.122-37.91-164.779-104.011-218.55-4.749-3.862-10.462-5.742-16.139-5.742zM602.19 381.323c-7.438 0-14.814 3.227-19.875 9.446-8.922 10.966-7.264 27.093 3.704 36.014 18.037 14.672 28.381 36.4 28.381 59.616 0 23.218-10.346 44.949-28.382 59.621-10.966 8.922-12.627 25.046-3.704 36.014s25.045 12.626 36.014 3.704c30.040-24.44 47.272-60.645 47.272-99.339 0-38.691-17.23-74.898-47.27-99.334-4.747-3.861-10.462-5.742-16.139-5.742zM417.291 859.784c-12.64 0-25.318-5.33-37.682-15.838l-209.819-178.346h-92.99c-42.347 0-76.8-34.453-76.8-76.8v-204.8c0-42.349 34.453-76.8 76.8-76.8h92.989l209.821-178.346c12.363-10.509 25.040-15.838 37.68-15.838 0 0 0 0 0.002 0 13.931 0 26.429 6.762 34.288 18.55 6.118 9.178 9.221 20.898 9.221 34.834v640c0 36.877-21.853 53.384-43.509 53.384zM51.2 384v204.8c0 14.115 11.485 25.6 25.6 25.6h76.8v-256h-76.8c-14.115 0-25.6 11.485-25.6 25.6zM409.6 170.558l-204.8 174.080v283.523l204.8 174.078v-631.682z" />
<glyph unicode="&#xe8b2;" glyph-name="volume-low" d="M602.19 381.323c-7.438 0-14.814 3.227-19.875 9.446-8.922 10.966-7.264 27.093 3.704 36.014 18.037 14.672 28.381 36.4 28.381 59.616 0 23.218-10.346 44.949-28.382 59.621-10.966 8.922-12.627 25.046-3.704 36.014s25.045 12.626 36.014 3.704c30.040-24.44 47.272-60.645 47.272-99.339 0-38.691-17.23-74.898-47.27-99.334-4.747-3.861-10.462-5.742-16.139-5.742zM417.291 859.784c-12.64 0-25.318-5.33-37.682-15.838l-209.819-178.346h-92.99c-42.347 0-76.8-34.453-76.8-76.8v-204.8c0-42.349 34.453-76.8 76.8-76.8h92.989l209.821-178.346c12.363-10.509 25.040-15.838 37.68-15.838 0 0 0 0 0.002 0 13.931 0 26.429 6.762 34.288 18.55 6.118 9.178 9.221 20.898 9.221 34.834v640c0 36.877-21.853 53.384-43.509 53.384zM51.2 384v204.8c0 14.115 11.485 25.6 25.6 25.6h76.8v-256h-76.8c-14.115 0-25.6 11.485-25.6 25.6zM409.6 170.558l-204.8 174.080v283.523l204.8 174.078v-631.682z" />
<glyph unicode="&#xe8b3;" glyph-name="volume" d="M417.291 859.784c-12.64 0-25.318-5.33-37.682-15.838l-209.819-178.346h-92.99c-42.347 0-76.8-34.453-76.8-76.8v-204.8c0-42.349 34.453-76.8 76.8-76.8h92.989l209.821-178.346c12.363-10.509 25.040-15.838 37.68-15.838 0 0 0 0 0.002 0 13.931 0 26.429 6.762 34.288 18.55 6.118 9.178 9.221 20.898 9.221 34.834v640c0 36.877-21.853 53.384-43.509 53.384zM51.2 384v204.8c0 14.115 11.485 25.6 25.6 25.6h76.8v-256h-76.8c-14.115 0-25.6 11.485-25.6 25.6zM409.6 170.558l-204.8 174.080v283.523l204.8 174.078v-631.682z" />
</font>
</defs>
</svg>
